<svg width="90" height="90" viewBox="0 0 90 90" fill="none" xmlns="http://www.w3.org/2000/svg">
<path d="M45 0C20.1827 0 0 20.1827 0 45C0 69.8173 20.1827 90 45 90C69.8173 90 90 69.8173 90 45C90 20.1827 69.8173 0 45 0ZM45 6C66.5746 6 84 23.4253 84 45C84 54.6851 80.4794 63.531 74.6562 70.3438C68.4765 59.9701 57.5088 53 45 53C32.4912 53 21.5235 59.9701 15.3438 70.3438C9.52065 63.531 6 54.6851 6 45C6 23.4253 23.4254 6 45 6ZM45 11C34.0375 11 25 19.7169 25 30.5C25 41.2832 34.0375 50 45 50C55.9625 50 65 41.2832 65 30.5C65 19.7169 55.9625 11 45 11ZM45 17C52.8152 17 59 23.0578 59 30.5C59 37.9423 52.8152 44 45 44C37.1848 44 31 37.9423 31 30.5C31 23.0578 37.1848 17 45 17ZM45 59C55.8079 59 65.2484 65.2775 70.25 74.7188C63.4487 80.4987 54.645 84 45 84C35.355 84 26.5513 80.4987 19.75 74.7188C24.7516 65.2775 34.1921 59 45 59Z" fill="#F5F7F9"/>
</svg>
