<svg width="36" height="19" viewBox="0 0 36 19" fill="none" xmlns="http://www.w3.org/2000/svg">
<path d="M17.9999 1.61356C12.3793 1.61356 7.65137 4.86615 6.25061 8.60377C7.65137 12.3414 12.3793 15.594 17.9999 15.594C23.6206 15.594 28.3485 12.3414 29.7496 8.60377C28.3485 4.86615 23.6206 1.61356 17.9999 1.61356ZM17.9999 13.6244C15.2157 13.6244 12.9581 11.3763 12.9581 8.60377C12.9581 5.83085 15.2157 3.5831 17.9999 3.5831C20.7849 3.5831 23.0421 5.83085 23.0421 8.60377C23.0421 11.3763 20.7849 13.6244 17.9999 13.6244ZM17.9999 5.40424C16.2259 5.40424 14.7869 6.83677 14.7869 8.60377C14.7869 10.3711 16.2259 11.8037 17.9999 11.8037C19.774 11.8037 21.2133 10.3711 21.2133 8.60377C21.2133 6.83677 19.774 5.40424 17.9999 5.40424Z" fill="#F5F7F9"/>
</svg>
