<svg width="11" height="11" viewBox="0 0 11 11" fill="none" xmlns="http://www.w3.org/2000/svg">
<path d="M0.316553 10.1905C0.503916 10.3767 0.757367 10.4812 1.02155 10.4812C1.28574 10.4812 1.53919 10.3767 1.72655 10.1905L5.26655 6.60046L8.80655 10.1905C9.00016 10.3841 9.26275 10.4928 9.53655 10.4928C9.81036 10.4928 10.0729 10.3841 10.2666 10.1905C10.4602 9.99685 10.5689 9.73426 10.5689 9.46046C10.5689 9.18665 10.4602 8.92407 10.2666 8.73046L6.67655 5.19046L10.2666 1.65046C10.4304 1.45916 10.516 1.21308 10.5063 0.961403C10.4965 0.709727 10.3922 0.470988 10.2141 0.292893C10.036 0.114799 9.79728 0.0104669 9.54561 0.000745782C9.29393 -0.00897537 9.04785 0.0766307 8.85655 0.240457L5.26655 3.78046L1.72655 0.240457C1.53525 0.0766307 1.28918 -0.00897537 1.0375 0.000745782C0.785823 0.0104669 0.547084 0.114799 0.368989 0.292893C0.190895 0.470988 0.086563 0.709727 0.0768418 0.961403C0.0671207 1.21308 0.152727 1.45916 0.316553 1.65046L3.85655 5.19046L0.316553 8.73046C0.216642 8.824 0.136995 8.93705 0.0825453 9.06262C0.0280951 9.18818 0 9.32359 0 9.46046C0 9.59732 0.0280951 9.73273 0.0825453 9.8583C0.136995 9.98386 0.216642 10.0969 0.316553 10.1905Z" fill="#F5F7F9"/>
</svg>
