<svg width="23" height="23" viewBox="0 0 23 23" fill="none" xmlns="http://www.w3.org/2000/svg">
<path d="M10.4864 3.5567C10.8174 3.23165 11.0033 2.79125 11.0033 2.3321C11.0033 1.87295 10.8174 1.43254 10.4864 1.1075C10.3622 0.98583 10.2924 0.820816 10.2924 0.648756C10.2924 0.476695 10.3622 0.311681 10.4864 0.190016C10.6106 0.0683509 10.779 1.28195e-09 10.9546 0C11.1302 -1.28195e-09 11.2987 0.0683509 11.4229 0.190016C12.0012 0.758412 12.3259 1.52824 12.3259 2.3308C12.3259 3.13336 12.0012 3.90319 11.4229 4.47158C11.0919 4.79663 10.906 5.23704 10.906 5.69619C10.906 6.15534 11.0919 6.59574 11.4229 6.92079C11.4844 6.98103 11.5331 7.05255 11.5664 7.13126C11.5997 7.20997 11.6168 7.29433 11.6168 7.37953C11.6168 7.46472 11.5997 7.54909 11.5664 7.6278C11.5331 7.70651 11.4844 7.77802 11.4229 7.83827C11.3614 7.89851 11.2884 7.9463 11.208 7.9789C11.1277 8.0115 11.0416 8.02828 10.9546 8.02828C10.8677 8.02828 10.7816 8.0115 10.7012 7.9789C10.6209 7.9463 10.5479 7.89851 10.4864 7.83827C9.90807 7.26987 9.58332 6.50004 9.58332 5.69748C9.58332 4.89492 9.90807 4.12509 10.4864 3.5567ZM14.4545 4.52342C14.0061 4.96364 13.7542 5.56019 13.7542 6.18214C13.7542 6.80409 14.0061 7.40064 14.4545 7.84086C14.5787 7.96252 14.7471 8.03088 14.9227 8.03088C15.0984 8.03088 15.2668 7.96252 15.391 7.84086C15.5152 7.71919 15.5849 7.55418 15.5849 7.38212C15.5849 7.21006 15.5152 7.04504 15.391 6.92338C15.1905 6.72617 15.0779 6.45917 15.0779 6.18084C15.0779 5.90251 15.1905 5.63552 15.391 5.43831C15.6133 5.2205 15.7897 4.96191 15.9101 4.6773C16.0304 4.39269 16.0924 4.08765 16.0924 3.77959C16.0924 3.47153 16.0304 3.16648 15.9101 2.88188C15.7897 2.59727 15.6133 2.33868 15.391 2.12087C15.3295 2.06063 15.2565 2.01284 15.1761 1.98024C15.0958 1.94763 15.0097 1.93085 14.9227 1.93085C14.8358 1.93085 14.7497 1.94763 14.6693 1.98024C14.589 2.01284 14.516 2.06063 14.4545 2.12087C14.393 2.18111 14.3442 2.25263 14.311 2.33134C14.2777 2.41005 14.2605 2.49441 14.2605 2.57961C14.2605 2.6648 14.2777 2.74917 14.311 2.82788C14.3442 2.90659 14.393 2.97811 14.4545 3.03835C14.5541 3.13583 14.6331 3.25158 14.687 3.37899C14.7409 3.5064 14.7686 3.64297 14.7686 3.78088C14.7686 3.9188 14.7409 4.05537 14.687 4.18278C14.6331 4.31019 14.5541 4.42594 14.4545 4.52342ZM6.51828 7.84086C6.57977 7.9011 6.65277 7.94889 6.73311 7.98149C6.81345 8.01409 6.89956 8.03088 6.98652 8.03088C7.07348 8.03088 7.15959 8.01409 7.23993 7.98149C7.32027 7.94889 7.39327 7.9011 7.45476 7.84086C7.51625 7.78062 7.56502 7.7091 7.5983 7.63039C7.63158 7.55168 7.64871 7.46731 7.64871 7.38212C7.64871 7.29692 7.63158 7.21256 7.5983 7.13385C7.56502 7.05514 7.51625 6.98362 7.45476 6.92338C7.25428 6.72617 7.14172 6.45917 7.14172 6.18084C7.14172 5.90251 7.25428 5.63552 7.45476 5.43831C7.9032 4.99808 8.15506 4.40154 8.15506 3.77959C8.15506 3.15764 7.9032 2.56109 7.45476 2.12087C7.39327 2.06063 7.32027 2.01284 7.23993 1.98024C7.15959 1.94763 7.07348 1.93085 6.98652 1.93085C6.89956 1.93085 6.81345 1.94763 6.73311 1.98024C6.65277 2.01284 6.57977 2.06063 6.51828 2.12087C6.45679 2.18111 6.40802 2.25263 6.37474 2.33134C6.34146 2.41005 6.32433 2.49441 6.32433 2.57961C6.32433 2.6648 6.34146 2.74917 6.37474 2.82788C6.40802 2.90659 6.45679 2.97811 6.51828 3.03835C6.71876 3.23556 6.83131 3.50255 6.83131 3.78088C6.83131 4.05922 6.71876 4.32621 6.51828 4.52342C6.07065 4.96354 5.8193 5.55953 5.8193 6.18084C5.8193 6.80216 6.07065 7.39815 6.51828 7.83827V7.84086ZM5.38314e-06 22.3547C-0.000699994 22.1833 0.0679417 22.0186 0.190902 21.8966C0.313863 21.7747 0.481124 21.7055 0.656066 21.7041H5.27759C3.87019 20.8115 2.81353 19.4775 2.28034 17.9202C2.23802 17.794 2.19745 17.6662 2.15866 17.5366C1.56778 15.4992 1.19802 13.4065 1.05552 11.2931C1.04166 11.0526 1.0779 10.8118 1.16203 10.5855C1.24617 10.3591 1.37644 10.1519 1.54492 9.97646C1.71528 9.80034 1.92034 9.65992 2.14769 9.56369C2.37504 9.46747 2.61996 9.41744 2.86762 9.41664H17.7454C17.993 9.41744 18.238 9.46747 18.4653 9.56369C18.6927 9.65992 18.8977 9.80034 19.0681 9.97646C19.2367 10.1518 19.367 10.359 19.4512 10.5854C19.5353 10.8118 19.5715 11.0525 19.5575 11.2931C19.531 11.7388 19.4887 12.1976 19.4331 12.6615H19.8247C20.3067 12.6614 20.7824 12.7688 21.2157 12.9756C21.6491 13.1824 22.0287 13.4832 22.3257 13.8551C22.6227 14.2271 22.8294 14.6604 22.93 15.1222C23.0307 15.5841 23.0227 16.0623 22.9066 16.5206C22.735 17.193 22.3391 17.79 21.7817 18.2168C21.2243 18.6437 20.5374 18.8758 19.83 18.8765H17.9147C17.3078 20.0255 16.4062 21 15.2984 21.7041H19.8247C20.0001 21.7041 20.1683 21.7724 20.2923 21.8939C20.4163 22.0154 20.486 22.1802 20.486 22.3521C20.486 22.5239 20.4163 22.6887 20.2923 22.8102C20.1683 22.9317 20.0001 23 19.8247 23H0.656066C0.481583 22.9986 0.314722 22.9298 0.191836 22.8084C0.0689509 22.687 -2.0058e-07 22.523 5.38314e-06 22.3521V22.3547ZM18.4438 17.5807H19.8273C20.2397 17.58 20.6401 17.4446 20.965 17.1958C21.2899 16.9469 21.5207 16.599 21.6209 16.207C21.6883 15.9401 21.6928 15.6617 21.6342 15.3928C21.5756 15.1238 21.4554 14.8715 21.2826 14.6548C21.1098 14.4381 20.889 14.2627 20.6369 14.1419C20.3848 14.0211 20.108 13.958 19.8273 13.9574H19.2559C19.0641 15.1657 18.7991 16.3617 18.4623 17.5392L18.4438 17.5807ZM9.54462 21.6497H11.0657C12.4314 21.656 13.7627 21.2308 14.8621 20.4371C15.9615 19.6434 16.7704 18.5235 17.1687 17.2437L17.1872 17.1841C17.7528 15.2391 18.1075 13.241 18.2454 11.2231C18.2491 11.159 18.2392 11.0948 18.2165 11.0346C18.1937 10.9744 18.1585 10.9195 18.1131 10.8732C18.0658 10.8245 18.0087 10.786 17.9454 10.7602C17.8821 10.7343 17.814 10.7216 17.7454 10.7229H2.87291C2.80458 10.7223 2.73687 10.7356 2.67404 10.7619C2.6112 10.7882 2.55462 10.827 2.50785 10.8758C2.46241 10.9221 2.42722 10.977 2.40446 11.0372C2.3817 11.0974 2.37187 11.1616 2.37558 11.2257C2.51345 13.2436 2.86813 15.2417 3.43374 17.1867C3.46549 17.2982 3.49988 17.407 3.53691 17.5133C3.96766 18.7338 4.77992 19.7903 5.85836 20.5328C6.9368 21.2753 8.22661 21.6661 9.54462 21.6497Z" fill="#F5F7F9"/>
</svg>
