<svg width="27" height="34" viewBox="0 0 27 34" fill="none" xmlns="http://www.w3.org/2000/svg">
<path d="M12.1499 16.32C10.6612 16.32 9.44995 15.0998 9.44995 13.6V9.52H4.04995C3.30448 9.52 2.69995 10.129 2.69995 10.88V19.04C2.69995 19.791 3.30448 20.4 4.04995 20.4H5.39995V23.12L8.09995 20.4H14.8499C15.5954 20.4 16.1999 19.791 16.1999 19.04V16.32H12.1499Z" fill="#F5F7F9"/>
<path d="M22.95 4.08H12.15C11.4046 4.08 10.8 4.68901 10.8 5.44V13.6C10.8 14.351 11.4046 14.96 12.15 14.96H18.9L21.6 17.68V14.96H22.95C23.6955 14.96 24.3 14.351 24.3 13.6V5.44C24.3 4.68901 23.6955 4.08 22.95 4.08Z" fill="#F5F7F9"/>
</svg>
