<svg width="610" height="107" viewBox="0 0 610 107" fill="none" xmlns="http://www.w3.org/2000/svg">
<rect x="8.5" y="8.5" width="593" height="90" stroke="#7AA8FF" stroke-opacity="0.7" stroke-width="3"/>
<g filter="url(#filter0_f)">
<rect x="9.5" y="9.5" width="591" height="88" stroke="#7AA8FF" stroke-opacity="0.7" stroke-width="5"/>
</g>
<g filter="url(#filter1_f)">
<path d="M49.296 64.384C53.584 64.384 56.56 62.272 58.224 58.144L54.96 57.312C54.128 59.904 52.432 61.888 49.328 61.888C47.12 61.888 45.488 61.12 44.464 59.68C43.344 58.08 42.96 55.776 42.96 52.8C42.96 49.76 43.376 47.392 44.56 45.824C45.68 44.352 47.312 43.712 49.392 43.712C52.624 43.712 54.352 45.92 54.928 48.672L58.096 48.064C56.976 43.52 53.584 41.216 49.36 41.216C42.96 41.216 39.664 46.016 39.664 52.8C39.664 60.288 43.056 64.384 49.296 64.384ZM81.7978 64H84.8058L76.8378 41.6H73.6698L65.6698 64H68.7098L70.9498 57.312H79.5258L81.7978 64ZM71.8138 54.752L74.0538 48C74.5338 46.592 74.8218 45.568 75.2058 44.384H75.2378C75.5258 45.344 76.0058 46.816 76.3898 48L78.6618 54.752H71.8138ZM94.607 64H97.487V53.984H107.567V51.392H97.487V44.192H108.751V41.6H94.607V64ZM119.385 64H133.657V61.408H122.265V53.984H132.537V51.392H122.265V44.192H133.657V41.6H119.385V64ZM172.296 64.384C176.584 64.384 179.56 62.272 181.224 58.144L177.96 57.312C177.128 59.904 175.432 61.888 172.328 61.888C170.12 61.888 168.488 61.12 167.464 59.68C166.344 58.08 165.96 55.776 165.96 52.8C165.96 49.76 166.376 47.392 167.56 45.824C168.68 44.352 170.312 43.712 172.392 43.712C175.624 43.712 177.352 45.92 177.928 48.672L181.096 48.064C179.976 43.52 176.584 41.216 172.36 41.216C165.96 41.216 162.664 46.016 162.664 52.8C162.664 60.288 166.056 64.384 172.296 64.384ZM199.164 64.384C205.34 64.384 208.732 59.68 208.732 52.8C208.732 45.984 205.34 41.216 199.164 41.216C192.891 41.216 189.532 45.952 189.532 52.8C189.532 60.288 192.988 64.384 199.164 64.384ZM199.164 61.888C197.116 61.888 195.452 61.152 194.396 59.808C193.34 58.464 192.828 56 192.828 52.8C192.828 49.792 193.308 47.296 194.428 45.792C195.324 44.576 196.988 43.712 199.292 43.712C201.372 43.712 202.972 44.48 203.964 45.984C205.02 47.584 205.468 49.888 205.468 52.8C205.468 55.872 204.956 58.304 203.772 59.872C202.78 61.216 201.212 61.888 199.164 61.888ZM233.983 58.4C233.983 56.096 233.183 54.464 231.071 53.664C233.023 52.992 234.527 50.944 234.527 48.192C234.527 42.112 229.727 41.6 225.791 41.6H218.591V64H221.471V54.72H226.079C229.951 54.72 231.103 55.744 231.103 58.72C231.103 61.824 231.327 62.88 232.063 64H235.231L235.263 63.904C234.175 62.528 233.983 60.992 233.983 58.4ZM225.759 52.256H221.471V44.096H225.791C228.479 44.096 231.679 44.096 231.679 48.32C231.679 52.032 228.479 52.256 225.759 52.256ZM244.963 64H247.811V51.168C247.811 50.56 247.747 47.648 247.651 45.504H247.683C248.547 47.2 249.795 49.664 250.275 50.528L257.955 64H261.219V41.6H258.371V54.272C258.371 55.2 258.435 58.048 258.531 59.904H258.499C257.571 58.144 256.675 56.352 255.843 54.912L248.163 41.6H244.963V64ZM272.76 64H287.032V61.408H275.64V53.984H285.912V51.392H275.64V44.192H287.032V41.6H272.76V64ZM312.827 58.4C312.827 56.096 312.027 54.464 309.915 53.664C311.867 52.992 313.371 50.944 313.371 48.192C313.371 42.112 308.571 41.6 304.635 41.6H297.435V64H300.315V54.72H304.923C308.795 54.72 309.947 55.744 309.947 58.72C309.947 61.824 310.171 62.88 310.907 64H314.075L314.107 63.904C313.019 62.528 312.827 60.992 312.827 58.4ZM304.603 52.256H300.315V44.096H304.635C307.323 44.096 310.523 44.096 310.523 48.32C310.523 52.032 307.323 52.256 304.603 52.256ZM358.827 58.4C358.827 56.096 358.027 54.464 355.915 53.664C357.867 52.992 359.371 50.944 359.371 48.192C359.371 42.112 354.571 41.6 350.635 41.6H343.435V64H346.315V54.72H350.923C354.795 54.72 355.947 55.744 355.947 58.72C355.947 61.824 356.171 62.88 356.907 64H360.075L360.107 63.904C359.019 62.528 358.827 60.992 358.827 58.4ZM350.603 52.256H346.315V44.096H350.635C353.323 44.096 356.523 44.096 356.523 48.32C356.523 52.032 353.323 52.256 350.603 52.256ZM370.479 64H384.751V61.408H373.359V53.984H383.631V51.392H373.359V44.192H384.751V41.6H370.479V64ZM400.978 64H403.986L411.634 41.6H408.498L404.466 54.432C403.346 57.92 402.674 60.288 402.514 60.768H402.482C402.258 60.096 401.586 57.92 400.498 54.432L396.466 41.6H393.33L400.978 64ZM429.48 44.128V41.6H421.256V44.128H423.912V61.472H421.256V64H429.48V61.472H426.824V44.128H429.48ZM441.51 64H455.782V61.408H444.39V53.984H454.662V51.392H444.39V44.192H455.782V41.6H441.51V64ZM468.553 64H471.945L474.633 52.704C475.113 50.656 475.497 48.8 475.753 47.328H475.817C476.073 48.736 476.521 50.784 476.969 52.672L479.721 64H483.049L487.241 41.6H484.201L482.185 55.072C481.865 57.248 481.577 59.104 481.417 60.48H481.353C481.065 59.072 480.713 57.504 480.137 55.072L477.417 43.84H474.249L471.529 55.072C471.113 56.864 470.601 59.104 470.345 60.48H470.281C470.089 59.04 469.993 58.208 469.449 55.072L467.401 41.6H464.361L468.553 64ZM504.305 64.384C508.401 64.384 512.945 62.912 512.945 57.472C512.945 52.768 509.297 51.936 505.009 51.2C502.097 50.688 498.865 49.952 498.865 47.392C498.865 44.864 501.297 43.616 503.665 43.616C507.025 43.616 509.105 45.504 509.233 48.736L512.241 48.192C511.729 43.008 508.049 41.216 503.633 41.216C500.049 41.216 495.889 42.976 495.889 47.52C495.889 51.744 499.569 53.024 502.929 53.824C506.161 54.624 509.937 54.592 509.937 57.696C509.937 60.864 507.249 61.952 504.209 61.952C500.881 61.952 498.417 60.032 498.321 56.544L495.249 56.864C495.345 61.984 499.505 64.384 504.305 64.384Z" fill="#7AA8FF" fill-opacity="0.7"/>
</g>
<path d="M554.59 37.9484C555.05 37.4962 555.309 36.8835 555.309 36.2447C555.309 35.6058 555.05 34.9931 554.59 34.5409C554.417 34.3716 554.32 34.142 554.32 33.9026C554.32 33.6632 554.417 33.4336 554.59 33.2644C554.763 33.0951 554.997 33 555.241 33C555.486 33 555.72 33.0951 555.893 33.2644C556.697 34.0552 557.149 35.1262 557.149 36.2429C557.149 37.3595 556.697 38.4305 555.893 39.2213C555.432 39.6736 555.174 40.2863 555.174 40.9251C555.174 41.5639 555.432 42.1767 555.893 42.6289C555.978 42.7127 556.046 42.8122 556.092 42.9218C556.139 43.0313 556.163 43.1486 556.163 43.2672C556.163 43.3857 556.139 43.5031 556.092 43.6126C556.046 43.7221 555.978 43.8216 555.893 43.9054C555.807 43.9892 555.706 44.0557 555.594 44.1011C555.482 44.1464 555.362 44.1698 555.241 44.1698C555.12 44.1698 555 44.1464 554.889 44.1011C554.777 44.0557 554.675 43.9892 554.59 43.9054C553.785 43.1146 553.333 42.0435 553.333 40.9269C553.333 39.8103 553.785 38.7393 554.59 37.9484V37.9484ZM560.111 39.2935C559.487 39.9059 559.136 40.7359 559.136 41.6012C559.136 42.4666 559.487 43.2965 560.111 43.909C560.283 44.0783 560.518 44.1734 560.762 44.1734C561.006 44.1734 561.241 44.0783 561.414 43.909C561.586 43.7397 561.683 43.5102 561.683 43.2708C561.683 43.0314 561.586 42.8018 561.414 42.6325C561.135 42.3581 560.978 41.9867 560.978 41.5994C560.978 41.2122 561.135 40.8407 561.414 40.5663C561.723 40.2633 561.968 39.9035 562.136 39.5075C562.303 39.1116 562.389 38.6872 562.389 38.2586C562.389 37.8299 562.303 37.4055 562.136 37.0096C561.968 36.6136 561.723 36.2538 561.414 35.9508C561.328 35.867 561.226 35.8005 561.115 35.7551C561.003 35.7098 560.883 35.6864 560.762 35.6864C560.641 35.6864 560.521 35.7098 560.409 35.7551C560.298 35.8005 560.196 35.867 560.111 35.9508C560.025 36.0346 559.957 36.1341 559.911 36.2436C559.865 36.3531 559.841 36.4705 559.841 36.589C559.841 36.7076 559.865 36.8249 559.911 36.9344C559.957 37.0439 560.025 37.1435 560.111 37.2273C560.249 37.3629 560.359 37.5239 560.434 37.7012C560.509 37.8785 560.548 38.0685 560.548 38.2604C560.548 38.4522 560.509 38.6423 560.434 38.8195C560.359 38.9968 560.249 39.1578 560.111 39.2935V39.2935ZM549.069 43.909C549.154 43.9928 549.256 44.0593 549.368 44.1047C549.48 44.15 549.599 44.1734 549.72 44.1734C549.841 44.1734 549.961 44.15 550.073 44.1047C550.185 44.0593 550.286 43.9928 550.372 43.909C550.457 43.8252 550.525 43.7257 550.572 43.6162C550.618 43.5067 550.642 43.3893 550.642 43.2708C550.642 43.1522 550.618 43.0349 550.572 42.9254C550.525 42.8158 550.457 42.7163 550.372 42.6325C550.093 42.3581 549.936 41.9867 549.936 41.5994C549.936 41.2122 550.093 40.8407 550.372 40.5663C550.996 39.9539 551.346 39.1239 551.346 38.2586C551.346 37.3932 550.996 36.5633 550.372 35.9508C550.286 35.867 550.185 35.8005 550.073 35.7551C549.961 35.7098 549.841 35.6864 549.72 35.6864C549.599 35.6864 549.48 35.7098 549.368 35.7551C549.256 35.8005 549.154 35.867 549.069 35.9508C548.983 36.0346 548.916 36.1341 548.869 36.2436C548.823 36.3531 548.799 36.4705 548.799 36.589C548.799 36.7076 548.823 36.8249 548.869 36.9344C548.916 37.0439 548.983 37.1435 549.069 37.2273C549.348 37.5016 549.504 37.8731 549.504 38.2604C549.504 38.6476 549.348 39.0191 549.069 39.2935V39.2935C548.446 39.9058 548.096 40.735 548.096 41.5994C548.096 42.4639 548.446 43.2931 549.069 43.9054V43.909ZM540 64.1021C539.999 63.8637 540.095 63.6345 540.266 63.4649C540.437 63.2953 540.669 63.1989 540.913 63.197H547.343C545.385 61.9551 543.914 60.0991 543.173 57.9324C543.114 57.7569 543.057 57.579 543.003 57.3987C542.181 54.5642 541.667 51.6525 541.469 48.7121C541.449 48.3775 541.5 48.0425 541.617 47.7276C541.734 47.4127 541.915 47.1244 542.149 46.8803C542.386 46.6353 542.672 46.4399 542.988 46.306C543.304 46.1721 543.645 46.1025 543.99 46.1014H564.689C565.034 46.1025 565.375 46.1721 565.691 46.306C566.007 46.4399 566.292 46.6353 566.53 46.8803C566.764 47.1243 566.945 47.4125 567.063 47.7275C567.18 48.0424 567.23 48.3775 567.21 48.7121C567.174 49.3323 567.115 49.9706 567.037 50.616H567.582C568.253 50.6158 568.915 50.7653 569.518 51.053C570.12 51.3408 570.649 51.7592 571.062 52.2767C571.475 52.7942 571.763 53.3971 571.903 54.0396C572.043 54.6822 572.032 55.3475 571.87 55.9852C571.631 56.9207 571.081 57.7513 570.305 58.3452C569.53 58.939 568.574 59.262 567.59 59.263H564.925C564.08 60.8616 562.826 62.2174 561.285 63.197H567.582C567.826 63.197 568.06 63.292 568.233 63.4611C568.405 63.6301 568.502 63.8594 568.502 64.0985C568.502 64.3376 568.405 64.5669 568.233 64.736C568.06 64.905 567.826 65 567.582 65H540.913C540.67 64.9981 540.438 64.9023 540.267 64.7334C540.096 64.5646 540 64.3364 540 64.0985V64.1021ZM565.661 57.46H567.586C568.16 57.4592 568.717 57.2707 569.169 56.9245C569.621 56.5783 569.942 56.0942 570.081 55.5489C570.175 55.1775 570.181 54.7901 570.1 54.416C570.018 54.0419 569.851 53.6908 569.611 53.3893C569.37 53.0878 569.063 52.8438 568.712 52.6757C568.361 52.5076 567.976 52.4198 567.586 52.419H566.791C566.524 54.1001 566.155 55.7641 565.687 57.4023L565.661 57.46ZM553.279 63.1213H555.396C557.296 63.1301 559.148 62.5385 560.678 61.4342C562.207 60.3299 563.333 58.7718 563.887 56.9913L563.913 56.9083C564.7 54.2022 565.193 51.4223 565.385 48.6147C565.39 48.5256 565.376 48.4363 565.345 48.3525C565.313 48.2688 565.264 48.1923 565.201 48.1279C565.135 48.0602 565.056 48.0067 564.967 47.9707C564.879 47.9347 564.785 47.917 564.689 47.9188H543.997C543.902 47.918 543.808 47.9364 543.72 47.9731C543.633 48.0097 543.554 48.0636 543.489 48.1315C543.426 48.1959 543.377 48.2724 543.345 48.3561C543.314 48.4399 543.3 48.5292 543.305 48.6183C543.497 51.4259 543.99 54.2058 544.777 56.9119C544.822 57.067 544.869 57.2184 544.921 57.3663C545.52 59.0644 546.65 60.5343 548.151 61.5674C549.651 62.6005 551.446 63.1442 553.279 63.1213V63.1213Z" fill="#7AA8FF" fill-opacity="0.7"/>
<g filter="url(#filter2_f)">
<path d="M554.59 38.9484C555.05 38.4962 555.309 37.8835 555.309 37.2447C555.309 36.6058 555.05 35.9931 554.59 35.5409C554.417 35.3716 554.32 35.142 554.32 34.9026C554.32 34.6632 554.417 34.4336 554.59 34.2644C554.763 34.0951 554.997 34 555.241 34C555.486 34 555.72 34.0951 555.893 34.2644C556.697 35.0552 557.149 36.1262 557.149 37.2429C557.149 38.3595 556.697 39.4305 555.893 40.2213C555.432 40.6736 555.174 41.2863 555.174 41.9251C555.174 42.5639 555.432 43.1767 555.893 43.6289C555.978 43.7127 556.046 43.8122 556.092 43.9218C556.139 44.0313 556.163 44.1486 556.163 44.2672C556.163 44.3857 556.139 44.5031 556.092 44.6126C556.046 44.7221 555.978 44.8216 555.893 44.9054C555.807 44.9892 555.706 45.0557 555.594 45.1011C555.482 45.1464 555.362 45.1698 555.241 45.1698C555.12 45.1698 555 45.1464 554.889 45.1011C554.777 45.0557 554.675 44.9892 554.59 44.9054C553.785 44.1146 553.333 43.0435 553.333 41.9269C553.333 40.8103 553.785 39.7393 554.59 38.9484V38.9484ZM560.111 40.2935C559.487 40.9059 559.136 41.7359 559.136 42.6012C559.136 43.4666 559.487 44.2965 560.111 44.909C560.283 45.0783 560.518 45.1734 560.762 45.1734C561.006 45.1734 561.241 45.0783 561.414 44.909C561.586 44.7397 561.683 44.5102 561.683 44.2708C561.683 44.0314 561.586 43.8018 561.414 43.6325C561.135 43.3581 560.978 42.9867 560.978 42.5994C560.978 42.2122 561.135 41.8407 561.414 41.5663C561.723 41.2633 561.968 40.9035 562.136 40.5075C562.303 40.1116 562.389 39.6872 562.389 39.2586C562.389 38.8299 562.303 38.4055 562.136 38.0096C561.968 37.6136 561.723 37.2538 561.414 36.9508C561.328 36.867 561.226 36.8005 561.115 36.7551C561.003 36.7098 560.883 36.6864 560.762 36.6864C560.641 36.6864 560.521 36.7098 560.409 36.7551C560.298 36.8005 560.196 36.867 560.111 36.9508C560.025 37.0346 559.957 37.1341 559.911 37.2436C559.865 37.3531 559.841 37.4705 559.841 37.589C559.841 37.7076 559.865 37.8249 559.911 37.9344C559.957 38.0439 560.025 38.1435 560.111 38.2273C560.249 38.3629 560.359 38.5239 560.434 38.7012C560.509 38.8785 560.548 39.0685 560.548 39.2604C560.548 39.4522 560.509 39.6423 560.434 39.8195C560.359 39.9968 560.249 40.1578 560.111 40.2935V40.2935ZM549.069 44.909C549.154 44.9928 549.256 45.0593 549.368 45.1047C549.48 45.15 549.599 45.1734 549.72 45.1734C549.841 45.1734 549.961 45.15 550.073 45.1047C550.185 45.0593 550.286 44.9928 550.372 44.909C550.457 44.8252 550.525 44.7257 550.572 44.6162C550.618 44.5067 550.642 44.3893 550.642 44.2708C550.642 44.1522 550.618 44.0349 550.572 43.9254C550.525 43.8158 550.457 43.7163 550.372 43.6325C550.093 43.3581 549.936 42.9867 549.936 42.5994C549.936 42.2122 550.093 41.8407 550.372 41.5663C550.996 40.9539 551.346 40.1239 551.346 39.2586C551.346 38.3932 550.996 37.5633 550.372 36.9508C550.286 36.867 550.185 36.8005 550.073 36.7551C549.961 36.7098 549.841 36.6864 549.72 36.6864C549.599 36.6864 549.48 36.7098 549.368 36.7551C549.256 36.8005 549.154 36.867 549.069 36.9508C548.983 37.0346 548.916 37.1341 548.869 37.2436C548.823 37.3531 548.799 37.4705 548.799 37.589C548.799 37.7076 548.823 37.8249 548.869 37.9344C548.916 38.0439 548.983 38.1435 549.069 38.2273C549.348 38.5016 549.504 38.8731 549.504 39.2604C549.504 39.6476 549.348 40.0191 549.069 40.2935V40.2935C548.446 40.9058 548.096 41.735 548.096 42.5994C548.096 43.4639 548.446 44.2931 549.069 44.9054V44.909ZM540 65.1021C539.999 64.8637 540.095 64.6345 540.266 64.4649C540.437 64.2953 540.669 64.1989 540.913 64.197H547.343C545.385 62.9551 543.914 61.0991 543.173 58.9324C543.114 58.7569 543.057 58.579 543.003 58.3987C542.181 55.5642 541.667 52.6525 541.469 49.7121C541.449 49.3775 541.5 49.0425 541.617 48.7276C541.734 48.4127 541.915 48.1244 542.149 47.8803C542.386 47.6353 542.672 47.4399 542.988 47.306C543.304 47.1721 543.645 47.1025 543.99 47.1014H564.689C565.034 47.1025 565.375 47.1721 565.691 47.306C566.007 47.4399 566.292 47.6353 566.53 47.8803C566.764 48.1243 566.945 48.4125 567.063 48.7275C567.18 49.0424 567.23 49.3775 567.21 49.7121C567.174 50.3323 567.115 50.9706 567.037 51.616H567.582C568.253 51.6158 568.915 51.7653 569.518 52.053C570.12 52.3408 570.649 52.7592 571.062 53.2767C571.475 53.7942 571.763 54.3971 571.903 55.0396C572.043 55.6822 572.032 56.3475 571.87 56.9852C571.631 57.9207 571.081 58.7513 570.305 59.3452C569.53 59.939 568.574 60.262 567.59 60.263H564.925C564.08 61.8616 562.826 63.2174 561.285 64.197H567.582C567.826 64.197 568.06 64.292 568.233 64.4611C568.405 64.6301 568.502 64.8594 568.502 65.0985C568.502 65.3376 568.405 65.5669 568.233 65.736C568.06 65.905 567.826 66 567.582 66H540.913C540.67 65.9981 540.438 65.9023 540.267 65.7334C540.096 65.5646 540 65.3364 540 65.0985V65.1021ZM565.661 58.46H567.586C568.16 58.4592 568.717 58.2707 569.169 57.9245C569.621 57.5783 569.942 57.0942 570.081 56.5489C570.175 56.1775 570.181 55.7901 570.1 55.416C570.018 55.0419 569.851 54.6908 569.611 54.3893C569.37 54.0878 569.063 53.8438 568.712 53.6757C568.361 53.5076 567.976 53.4198 567.586 53.419H566.791C566.524 55.1001 566.155 56.7641 565.687 58.4023L565.661 58.46ZM553.279 64.1213H555.396C557.296 64.1301 559.148 63.5385 560.678 62.4342C562.207 61.3299 563.333 59.7718 563.887 57.9913L563.913 57.9083C564.7 55.2022 565.193 52.4223 565.385 49.6147C565.39 49.5256 565.376 49.4363 565.345 49.3525C565.313 49.2688 565.264 49.1923 565.201 49.1279C565.135 49.0602 565.056 49.0067 564.967 48.9707C564.879 48.9347 564.785 48.917 564.689 48.9188H543.997C543.902 48.918 543.808 48.9364 543.72 48.9731C543.633 49.0097 543.554 49.0636 543.489 49.1315C543.426 49.1959 543.377 49.2724 543.345 49.3561C543.314 49.4399 543.3 49.5292 543.305 49.6183C543.497 52.4259 543.99 55.2058 544.777 57.9119C544.822 58.067 544.869 58.2184 544.921 58.3663C545.52 60.0644 546.65 61.5343 548.151 62.5674C549.651 63.6005 551.446 64.1442 553.279 64.1213V64.1213Z" fill="#7AA8FF" fill-opacity="0.7"/>
</g>
<g filter="url(#filter3_d)">
<path d="M49.296 64.384C53.584 64.384 56.56 62.272 58.224 58.144L54.96 57.312C54.128 59.904 52.432 61.888 49.328 61.888C47.12 61.888 45.488 61.12 44.464 59.68C43.344 58.08 42.96 55.776 42.96 52.8C42.96 49.76 43.376 47.392 44.56 45.824C45.68 44.352 47.312 43.712 49.392 43.712C52.624 43.712 54.352 45.92 54.928 48.672L58.096 48.064C56.976 43.52 53.584 41.216 49.36 41.216C42.96 41.216 39.664 46.016 39.664 52.8C39.664 60.288 43.056 64.384 49.296 64.384ZM81.7978 64H84.8058L76.8378 41.6H73.6698L65.6698 64H68.7098L70.9498 57.312H79.5258L81.7978 64ZM71.8138 54.752L74.0538 48C74.5338 46.592 74.8218 45.568 75.2058 44.384H75.2378C75.5258 45.344 76.0058 46.816 76.3898 48L78.6618 54.752H71.8138ZM94.607 64H97.487V53.984H107.567V51.392H97.487V44.192H108.751V41.6H94.607V64ZM132.153 64H119.385V41.152H132.153V43.68H122.265V50.816H131.577V53.312H122.265V61.472H132.153V64ZM130.553 34.112C130.297 34.496 129.903 34.9973 129.369 35.616C128.836 36.2133 128.26 36.8213 127.641 37.44C127.044 38.0373 126.489 38.528 125.977 38.912H124.121V38.528C124.441 38.1227 124.783 37.6427 125.145 37.088C125.529 36.5333 125.903 35.968 126.265 35.392C126.628 34.7947 126.927 34.2613 127.161 33.792H130.553V34.112ZM170.859 64.384C175.147 64.384 178.123 62.272 179.787 58.144L176.523 57.312C175.691 59.904 173.995 61.888 170.891 61.888C168.683 61.888 167.051 61.12 166.027 59.68C164.907 58.08 164.523 55.776 164.523 52.8C164.523 49.76 164.939 47.392 166.123 45.824C167.243 44.352 168.875 43.712 170.955 43.712C174.187 43.712 175.915 45.92 176.491 48.672L179.659 48.064C178.539 43.52 175.147 41.216 170.923 41.216C164.523 41.216 161.227 46.016 161.227 52.8C161.227 60.288 164.619 64.384 170.859 64.384ZM197.726 64.384C203.902 64.384 207.294 59.68 207.294 52.8C207.294 45.984 203.902 41.216 197.726 41.216C191.454 41.216 188.094 45.952 188.094 52.8C188.094 60.288 191.55 64.384 197.726 64.384ZM197.726 61.888C195.678 61.888 194.014 61.152 192.958 59.808C191.902 58.464 191.39 56 191.39 52.8C191.39 49.792 191.87 47.296 192.99 45.792C193.886 44.576 195.55 43.712 197.854 43.712C199.934 43.712 201.534 44.48 202.526 45.984C203.582 47.584 204.03 49.888 204.03 52.8C204.03 55.872 203.518 58.304 202.334 59.872C201.342 61.216 199.774 61.888 197.726 61.888ZM232.546 58.4C232.546 56.096 231.746 54.464 229.634 53.664C231.586 52.992 233.09 50.944 233.09 48.192C233.09 42.112 228.29 41.6 224.354 41.6H217.154V64H220.034V54.72H224.642C228.514 54.72 229.666 55.744 229.666 58.72C229.666 61.824 229.89 62.88 230.626 64H233.794L233.826 63.904C232.738 62.528 232.546 60.992 232.546 58.4ZM224.322 52.256H220.034V44.096H224.354C227.042 44.096 230.242 44.096 230.242 48.32C230.242 52.032 227.042 52.256 224.322 52.256ZM243.526 64H246.374V51.168C246.374 50.56 246.31 47.648 246.214 45.504H246.246C247.11 47.2 248.358 49.664 248.838 50.528L256.518 64H259.782V41.6H256.934V54.272C256.934 55.2 256.998 58.048 257.094 59.904H257.062C256.134 58.144 255.238 56.352 254.406 54.912L246.726 41.6H243.526V64ZM271.323 64H285.595V61.408H274.203V53.984H284.475V51.392H274.203V44.192H285.595V41.6H271.323V64ZM311.39 58.4C311.39 56.096 310.59 54.464 308.478 53.664C310.43 52.992 311.934 50.944 311.934 48.192C311.934 42.112 307.134 41.6 303.198 41.6H295.998V64H298.878V54.72H303.486C307.358 54.72 308.51 55.744 308.51 58.72C308.51 61.824 308.734 62.88 309.47 64H312.638L312.67 63.904C311.582 62.528 311.39 60.992 311.39 58.4ZM303.166 52.256H298.878V44.096H303.198C305.886 44.096 309.086 44.096 309.086 48.32C309.086 52.032 305.886 52.256 303.166 52.256ZM357.39 58.4C357.39 56.096 356.59 54.464 354.478 53.664C356.43 52.992 357.934 50.944 357.934 48.192C357.934 42.112 353.134 41.6 349.198 41.6H341.998V64H344.878V54.72H349.486C353.358 54.72 354.51 55.744 354.51 58.72C354.51 61.824 354.734 62.88 355.47 64H358.638L358.67 63.904C357.582 62.528 357.39 60.992 357.39 58.4ZM349.166 52.256H344.878V44.096H349.198C351.886 44.096 355.086 44.096 355.086 48.32C355.086 52.032 351.886 52.256 349.166 52.256ZM369.042 64H383.314V61.408H371.922V53.984H382.194V51.392H371.922V44.192H383.314V41.6H369.042V64ZM399.54 64H402.548L410.196 41.6H407.06L403.028 54.432C401.908 57.92 401.236 60.288 401.076 60.768H401.044C400.82 60.096 400.148 57.92 399.06 54.432L395.028 41.6H391.892L399.54 64ZM428.042 44.128V41.6H419.818V44.128H422.474V61.472H419.818V64H428.042V61.472H425.386V44.128H428.042ZM440.073 64H454.345V61.408H442.953V53.984H453.225V51.392H442.953V44.192H454.345V41.6H440.073V64ZM467.116 64H470.508L473.196 52.704C473.676 50.656 474.06 48.8 474.316 47.328H474.38C474.636 48.736 475.084 50.784 475.532 52.672L478.284 64H481.612L485.804 41.6H482.764L480.748 55.072C480.428 57.248 480.14 59.104 479.98 60.48H479.916C479.628 59.072 479.276 57.504 478.7 55.072L475.98 43.84H472.812L470.092 55.072C469.676 56.864 469.164 59.104 468.908 60.48H468.844C468.652 59.04 468.556 58.208 468.012 55.072L465.964 41.6H462.924L467.116 64ZM502.867 64.384C506.963 64.384 511.507 62.912 511.507 57.472C511.507 52.768 507.859 51.936 503.571 51.2C500.659 50.688 497.427 49.952 497.427 47.392C497.427 44.864 499.859 43.616 502.227 43.616C505.587 43.616 507.667 45.504 507.795 48.736L510.803 48.192C510.291 43.008 506.611 41.216 502.195 41.216C498.611 41.216 494.451 42.976 494.451 47.52C494.451 51.744 498.131 53.024 501.491 53.824C504.723 54.624 508.499 54.592 508.499 57.696C508.499 60.864 505.811 61.952 502.771 61.952C499.443 61.952 496.979 60.032 496.883 56.544L493.811 56.864C493.907 61.984 498.067 64.384 502.867 64.384Z" fill="#7AA8FF" fill-opacity="0.7"/>
</g>
<defs>
<filter id="filter0_f" x="0" y="0" width="610" height="107" filterUnits="userSpaceOnUse" color-interpolation-filters="sRGB">
<feFlood flood-opacity="0" result="BackgroundImageFix"/>
<feBlend mode="normal" in="SourceGraphic" in2="BackgroundImageFix" result="shape"/>
<feGaussianBlur stdDeviation="3.5" result="effect1_foregroundBlur"/>
</filter>
<filter id="filter1_f" x="26.6639" y="28.2158" width="499.281" height="49.168" filterUnits="userSpaceOnUse" color-interpolation-filters="sRGB">
<feFlood flood-opacity="0" result="BackgroundImageFix"/>
<feBlend mode="normal" in="SourceGraphic" in2="BackgroundImageFix" result="shape"/>
<feGaussianBlur stdDeviation="6.5" result="effect1_foregroundBlur"/>
</filter>
<filter id="filter2_f" x="538" y="32" width="36" height="36" filterUnits="userSpaceOnUse" color-interpolation-filters="sRGB">
<feFlood flood-opacity="0" result="BackgroundImageFix"/>
<feBlend mode="normal" in="SourceGraphic" in2="BackgroundImageFix" result="shape"/>
<feGaussianBlur stdDeviation="1" result="effect1_foregroundBlur"/>
</filter>
<filter id="filter3_d" x="35.6639" y="33.792" width="479.843" height="38.592" filterUnits="userSpaceOnUse" color-interpolation-filters="sRGB">
<feFlood flood-opacity="0" result="BackgroundImageFix"/>
<feColorMatrix in="SourceAlpha" type="matrix" values="0 0 0 0 0 0 0 0 0 0 0 0 0 0 0 0 0 0 127 0"/>
<feOffset dy="4"/>
<feGaussianBlur stdDeviation="2"/>
<feColorMatrix type="matrix" values="0 0 0 0 0 0 0 0 0 0 0 0 0 0 0 0 0 0 0.25 0"/>
<feBlend mode="normal" in2="BackgroundImageFix" result="effect1_dropShadow"/>
<feBlend mode="normal" in="SourceGraphic" in2="effect1_dropShadow" result="shape"/>
</filter>
</defs>
</svg>
