<svg width="658" height="113" viewBox="0 0 658 113" fill="none" xmlns="http://www.w3.org/2000/svg">
<rect x="11.5" y="11.5" width="593" height="90" stroke="#F5F7F9" stroke-width="3"/>
<g filter="url(#filter0_f)">
<rect x="12.5" y="12.5" width="591" height="88" stroke="#F5F7F9" stroke-width="5"/>
</g>
<g filter="url(#filter1_f)">
<path d="M52.296 67.384C56.584 67.384 59.56 65.272 61.224 61.144L57.96 60.312C57.128 62.904 55.432 64.888 52.328 64.888C50.12 64.888 48.488 64.12 47.464 62.68C46.344 61.08 45.96 58.776 45.96 55.8C45.96 52.76 46.376 50.392 47.56 48.824C48.68 47.352 50.312 46.712 52.392 46.712C55.624 46.712 57.352 48.92 57.928 51.672L61.096 51.064C59.976 46.52 56.584 44.216 52.36 44.216C45.96 44.216 42.664 49.016 42.664 55.8C42.664 63.288 46.056 67.384 52.296 67.384ZM84.7978 67H87.8058L79.8378 44.6H76.6698L68.6698 67H71.7098L73.9498 60.312H82.5258L84.7978 67ZM74.8138 57.752L77.0538 51C77.5338 49.592 77.8218 48.568 78.2058 47.384H78.2378C78.5258 48.344 79.0058 49.816 79.3898 51L81.6618 57.752H74.8138ZM97.607 67H100.487V56.984H110.567V54.392H100.487V47.192H111.751V44.6H97.607V67ZM122.385 67H136.657V64.408H125.265V56.984H135.537V54.392H125.265V47.192H136.657V44.6H122.385V67ZM175.296 67.384C179.584 67.384 182.56 65.272 184.224 61.144L180.96 60.312C180.128 62.904 178.432 64.888 175.328 64.888C173.12 64.888 171.488 64.12 170.464 62.68C169.344 61.08 168.96 58.776 168.96 55.8C168.96 52.76 169.376 50.392 170.56 48.824C171.68 47.352 173.312 46.712 175.392 46.712C178.624 46.712 180.352 48.92 180.928 51.672L184.096 51.064C182.976 46.52 179.584 44.216 175.36 44.216C168.96 44.216 165.664 49.016 165.664 55.8C165.664 63.288 169.056 67.384 175.296 67.384ZM202.164 67.384C208.34 67.384 211.732 62.68 211.732 55.8C211.732 48.984 208.34 44.216 202.164 44.216C195.891 44.216 192.532 48.952 192.532 55.8C192.532 63.288 195.988 67.384 202.164 67.384ZM202.164 64.888C200.116 64.888 198.452 64.152 197.396 62.808C196.34 61.464 195.828 59 195.828 55.8C195.828 52.792 196.308 50.296 197.428 48.792C198.324 47.576 199.988 46.712 202.292 46.712C204.372 46.712 205.972 47.48 206.964 48.984C208.02 50.584 208.468 52.888 208.468 55.8C208.468 58.872 207.956 61.304 206.772 62.872C205.78 64.216 204.212 64.888 202.164 64.888ZM236.983 61.4C236.983 59.096 236.183 57.464 234.071 56.664C236.023 55.992 237.527 53.944 237.527 51.192C237.527 45.112 232.727 44.6 228.791 44.6H221.591V67H224.471V57.72H229.079C232.951 57.72 234.103 58.744 234.103 61.72C234.103 64.824 234.327 65.88 235.063 67H238.231L238.263 66.904C237.175 65.528 236.983 63.992 236.983 61.4ZM228.759 55.256H224.471V47.096H228.791C231.479 47.096 234.679 47.096 234.679 51.32C234.679 55.032 231.479 55.256 228.759 55.256ZM247.963 67H250.811V54.168C250.811 53.56 250.747 50.648 250.651 48.504H250.683C251.547 50.2 252.795 52.664 253.275 53.528L260.955 67H264.219V44.6H261.371V57.272C261.371 58.2 261.435 61.048 261.531 62.904H261.499C260.571 61.144 259.675 59.352 258.843 57.912L251.163 44.6H247.963V67ZM275.76 67H290.032V64.408H278.64V56.984H288.912V54.392H278.64V47.192H290.032V44.6H275.76V67ZM315.827 61.4C315.827 59.096 315.027 57.464 312.915 56.664C314.867 55.992 316.371 53.944 316.371 51.192C316.371 45.112 311.571 44.6 307.635 44.6H300.435V67H303.315V57.72H307.923C311.795 57.72 312.947 58.744 312.947 61.72C312.947 64.824 313.171 65.88 313.907 67H317.075L317.107 66.904C316.019 65.528 315.827 63.992 315.827 61.4ZM307.603 55.256H303.315V47.096H307.635C310.323 47.096 313.523 47.096 313.523 51.32C313.523 55.032 310.323 55.256 307.603 55.256ZM361.827 61.4C361.827 59.096 361.027 57.464 358.915 56.664C360.867 55.992 362.371 53.944 362.371 51.192C362.371 45.112 357.571 44.6 353.635 44.6H346.435V67H349.315V57.72H353.923C357.795 57.72 358.947 58.744 358.947 61.72C358.947 64.824 359.171 65.88 359.907 67H363.075L363.107 66.904C362.019 65.528 361.827 63.992 361.827 61.4ZM353.603 55.256H349.315V47.096H353.635C356.323 47.096 359.523 47.096 359.523 51.32C359.523 55.032 356.323 55.256 353.603 55.256ZM373.479 67H387.751V64.408H376.359V56.984H386.631V54.392H376.359V47.192H387.751V44.6H373.479V67ZM403.978 67H406.986L414.634 44.6H411.498L407.466 57.432C406.346 60.92 405.674 63.288 405.514 63.768H405.482C405.258 63.096 404.586 60.92 403.498 57.432L399.466 44.6H396.33L403.978 67ZM432.48 47.128V44.6H424.256V47.128H426.912V64.472H424.256V67H432.48V64.472H429.824V47.128H432.48ZM444.51 67H458.782V64.408H447.39V56.984H457.662V54.392H447.39V47.192H458.782V44.6H444.51V67ZM471.553 67H474.945L477.633 55.704C478.113 53.656 478.497 51.8 478.753 50.328H478.817C479.073 51.736 479.521 53.784 479.969 55.672L482.721 67H486.049L490.241 44.6H487.201L485.185 58.072C484.865 60.248 484.577 62.104 484.417 63.48H484.353C484.065 62.072 483.713 60.504 483.137 58.072L480.417 46.84H477.249L474.529 58.072C474.113 59.864 473.601 62.104 473.345 63.48H473.281C473.089 62.04 472.993 61.208 472.449 58.072L470.401 44.6H467.361L471.553 67ZM507.305 67.384C511.401 67.384 515.945 65.912 515.945 60.472C515.945 55.768 512.297 54.936 508.009 54.2C505.097 53.688 501.865 52.952 501.865 50.392C501.865 47.864 504.297 46.616 506.665 46.616C510.025 46.616 512.105 48.504 512.233 51.736L515.241 51.192C514.729 46.008 511.049 44.216 506.633 44.216C503.049 44.216 498.889 45.976 498.889 50.52C498.889 54.744 502.569 56.024 505.929 56.824C509.161 57.624 512.937 57.592 512.937 60.696C512.937 63.864 510.249 64.952 507.209 64.952C503.881 64.952 501.417 63.032 501.321 59.544L498.249 59.864C498.345 64.984 502.505 67.384 507.305 67.384Z" fill="#F5F7F9"/>
</g>
<path d="M557.59 40.9484C558.05 40.4962 558.309 39.8835 558.309 39.2447C558.309 38.6058 558.05 37.9931 557.59 37.5409C557.417 37.3716 557.32 37.142 557.32 36.9026C557.32 36.6632 557.417 36.4336 557.59 36.2644C557.763 36.0951 557.997 36 558.241 36C558.486 36 558.72 36.0951 558.893 36.2644C559.697 37.0552 560.149 38.1262 560.149 39.2429C560.149 40.3595 559.697 41.4305 558.893 42.2213C558.432 42.6736 558.174 43.2863 558.174 43.9251C558.174 44.5639 558.432 45.1767 558.893 45.6289C558.978 45.7127 559.046 45.8122 559.092 45.9218C559.139 46.0313 559.163 46.1486 559.163 46.2672C559.163 46.3857 559.139 46.5031 559.092 46.6126C559.046 46.7221 558.978 46.8216 558.893 46.9054C558.807 46.9892 558.706 47.0557 558.594 47.1011C558.482 47.1464 558.362 47.1698 558.241 47.1698C558.12 47.1698 558 47.1464 557.889 47.1011C557.777 47.0557 557.675 46.9892 557.59 46.9054C556.785 46.1146 556.333 45.0435 556.333 43.9269C556.333 42.8103 556.785 41.7393 557.59 40.9484V40.9484ZM563.111 42.2935C562.487 42.9059 562.136 43.7359 562.136 44.6012C562.136 45.4666 562.487 46.2965 563.111 46.909C563.283 47.0783 563.518 47.1734 563.762 47.1734C564.006 47.1734 564.241 47.0783 564.414 46.909C564.586 46.7397 564.683 46.5102 564.683 46.2708C564.683 46.0314 564.586 45.8018 564.414 45.6325C564.135 45.3581 563.978 44.9867 563.978 44.5994C563.978 44.2122 564.135 43.8407 564.414 43.5663C564.723 43.2633 564.968 42.9035 565.136 42.5075C565.303 42.1116 565.389 41.6872 565.389 41.2586C565.389 40.8299 565.303 40.4055 565.136 40.0096C564.968 39.6136 564.723 39.2538 564.414 38.9508C564.328 38.867 564.226 38.8005 564.115 38.7551C564.003 38.7098 563.883 38.6864 563.762 38.6864C563.641 38.6864 563.521 38.7098 563.409 38.7551C563.298 38.8005 563.196 38.867 563.111 38.9508C563.025 39.0346 562.957 39.1341 562.911 39.2436C562.865 39.3531 562.841 39.4705 562.841 39.589C562.841 39.7076 562.865 39.8249 562.911 39.9344C562.957 40.0439 563.025 40.1435 563.111 40.2273C563.249 40.3629 563.359 40.5239 563.434 40.7012C563.509 40.8785 563.548 41.0685 563.548 41.2604C563.548 41.4522 563.509 41.6423 563.434 41.8195C563.359 41.9968 563.249 42.1578 563.111 42.2935V42.2935ZM552.069 46.909C552.154 46.9928 552.256 47.0593 552.368 47.1047C552.48 47.15 552.599 47.1734 552.72 47.1734C552.841 47.1734 552.961 47.15 553.073 47.1047C553.185 47.0593 553.286 46.9928 553.372 46.909C553.457 46.8252 553.525 46.7257 553.572 46.6162C553.618 46.5067 553.642 46.3893 553.642 46.2708C553.642 46.1522 553.618 46.0349 553.572 45.9254C553.525 45.8158 553.457 45.7163 553.372 45.6325C553.093 45.3581 552.936 44.9867 552.936 44.5994C552.936 44.2122 553.093 43.8407 553.372 43.5663C553.996 42.9539 554.346 42.1239 554.346 41.2586C554.346 40.3932 553.996 39.5633 553.372 38.9508C553.286 38.867 553.185 38.8005 553.073 38.7551C552.961 38.7098 552.841 38.6864 552.72 38.6864C552.599 38.6864 552.48 38.7098 552.368 38.7551C552.256 38.8005 552.154 38.867 552.069 38.9508C551.983 39.0346 551.916 39.1341 551.869 39.2436C551.823 39.3531 551.799 39.4705 551.799 39.589C551.799 39.7076 551.823 39.8249 551.869 39.9344C551.916 40.0439 551.983 40.1435 552.069 40.2273C552.348 40.5016 552.504 40.8731 552.504 41.2604C552.504 41.6476 552.348 42.0191 552.069 42.2935V42.2935C551.446 42.9058 551.096 43.735 551.096 44.5994C551.096 45.4639 551.446 46.2931 552.069 46.9054V46.909ZM543 67.1021C542.999 66.8637 543.095 66.6345 543.266 66.4649C543.437 66.2953 543.669 66.1989 543.913 66.197H550.343C548.385 64.9551 546.914 63.0991 546.173 60.9324C546.114 60.7569 546.057 60.579 546.003 60.3987C545.181 57.5642 544.667 54.6525 544.469 51.7121C544.449 51.3775 544.5 51.0425 544.617 50.7276C544.734 50.4127 544.915 50.1244 545.149 49.8803C545.386 49.6353 545.672 49.4399 545.988 49.306C546.304 49.1721 546.645 49.1025 546.99 49.1014H567.689C568.034 49.1025 568.375 49.1721 568.691 49.306C569.007 49.4399 569.292 49.6353 569.53 49.8803C569.764 50.1243 569.945 50.4125 570.063 50.7275C570.18 51.0424 570.23 51.3775 570.21 51.7121C570.174 52.3323 570.115 52.9706 570.037 53.616H570.582C571.253 53.6158 571.915 53.7653 572.518 54.053C573.12 54.3408 573.649 54.7592 574.062 55.2767C574.475 55.7942 574.763 56.3971 574.903 57.0396C575.043 57.6822 575.032 58.3475 574.87 58.9852C574.631 59.9207 574.081 60.7513 573.305 61.3452C572.53 61.939 571.574 62.262 570.59 62.263H567.925C567.08 63.8616 565.826 65.2174 564.285 66.197H570.582C570.826 66.197 571.06 66.292 571.233 66.4611C571.405 66.6301 571.502 66.8594 571.502 67.0985C571.502 67.3376 571.405 67.5669 571.233 67.736C571.06 67.905 570.826 68 570.582 68H543.913C543.67 67.9981 543.438 67.9023 543.267 67.7334C543.096 67.5646 543 67.3364 543 67.0985V67.1021ZM568.661 60.46H570.586C571.16 60.4592 571.717 60.2707 572.169 59.9245C572.621 59.5783 572.942 59.0942 573.081 58.5489C573.175 58.1775 573.181 57.7901 573.1 57.416C573.018 57.0419 572.851 56.6908 572.611 56.3893C572.37 56.0878 572.063 55.8438 571.712 55.6757C571.361 55.5076 570.976 55.4198 570.586 55.419H569.791C569.524 57.1001 569.155 58.7641 568.687 60.4023L568.661 60.46ZM556.279 66.1213H558.396C560.296 66.1301 562.148 65.5385 563.678 64.4342C565.207 63.3299 566.333 61.7718 566.887 59.9913L566.913 59.9083C567.7 57.2022 568.193 54.4223 568.385 51.6147C568.39 51.5256 568.376 51.4363 568.345 51.3525C568.313 51.2688 568.264 51.1923 568.201 51.1279C568.135 51.0602 568.056 51.0067 567.967 50.9707C567.879 50.9347 567.785 50.917 567.689 50.9188H546.997C546.902 50.918 546.808 50.9364 546.72 50.9731C546.633 51.0097 546.554 51.0636 546.489 51.1315C546.426 51.1959 546.377 51.2724 546.345 51.3561C546.314 51.4399 546.3 51.5292 546.305 51.6183C546.497 54.4259 546.99 57.2058 547.777 59.9119C547.822 60.067 547.869 60.2184 547.921 60.3663C548.52 62.0644 549.65 63.5343 551.151 64.5674C552.651 65.6005 554.446 66.1442 556.279 66.1213V66.1213Z" fill="#F5F7F9"/>
<g filter="url(#filter2_f)">
<path d="M557.59 41.9484C558.05 41.4962 558.309 40.8835 558.309 40.2447C558.309 39.6058 558.05 38.9931 557.59 38.5409C557.417 38.3716 557.32 38.142 557.32 37.9026C557.32 37.6632 557.417 37.4336 557.59 37.2644C557.763 37.0951 557.997 37 558.241 37C558.486 37 558.72 37.0951 558.893 37.2644C559.697 38.0552 560.149 39.1262 560.149 40.2429C560.149 41.3595 559.697 42.4305 558.893 43.2213C558.432 43.6736 558.174 44.2863 558.174 44.9251C558.174 45.5639 558.432 46.1767 558.893 46.6289C558.978 46.7127 559.046 46.8122 559.092 46.9218C559.139 47.0313 559.163 47.1486 559.163 47.2672C559.163 47.3857 559.139 47.5031 559.092 47.6126C559.046 47.7221 558.978 47.8216 558.893 47.9054C558.807 47.9892 558.706 48.0557 558.594 48.1011C558.482 48.1464 558.362 48.1698 558.241 48.1698C558.12 48.1698 558 48.1464 557.889 48.1011C557.777 48.0557 557.675 47.9892 557.59 47.9054C556.785 47.1146 556.333 46.0435 556.333 44.9269C556.333 43.8103 556.785 42.7393 557.59 41.9484V41.9484ZM563.111 43.2935C562.487 43.9059 562.136 44.7359 562.136 45.6012C562.136 46.4666 562.487 47.2965 563.111 47.909C563.283 48.0783 563.518 48.1734 563.762 48.1734C564.006 48.1734 564.241 48.0783 564.414 47.909C564.586 47.7397 564.683 47.5102 564.683 47.2708C564.683 47.0314 564.586 46.8018 564.414 46.6325C564.135 46.3581 563.978 45.9867 563.978 45.5994C563.978 45.2122 564.135 44.8407 564.414 44.5663C564.723 44.2633 564.968 43.9035 565.136 43.5075C565.303 43.1116 565.389 42.6872 565.389 42.2586C565.389 41.8299 565.303 41.4055 565.136 41.0096C564.968 40.6136 564.723 40.2538 564.414 39.9508C564.328 39.867 564.226 39.8005 564.115 39.7551C564.003 39.7098 563.883 39.6864 563.762 39.6864C563.641 39.6864 563.521 39.7098 563.409 39.7551C563.298 39.8005 563.196 39.867 563.111 39.9508C563.025 40.0346 562.957 40.1341 562.911 40.2436C562.865 40.3531 562.841 40.4705 562.841 40.589C562.841 40.7076 562.865 40.8249 562.911 40.9344C562.957 41.0439 563.025 41.1435 563.111 41.2273C563.249 41.3629 563.359 41.5239 563.434 41.7012C563.509 41.8785 563.548 42.0685 563.548 42.2604C563.548 42.4522 563.509 42.6423 563.434 42.8195C563.359 42.9968 563.249 43.1578 563.111 43.2935V43.2935ZM552.069 47.909C552.154 47.9928 552.256 48.0593 552.368 48.1047C552.48 48.15 552.599 48.1734 552.72 48.1734C552.841 48.1734 552.961 48.15 553.073 48.1047C553.185 48.0593 553.286 47.9928 553.372 47.909C553.457 47.8252 553.525 47.7257 553.572 47.6162C553.618 47.5067 553.642 47.3893 553.642 47.2708C553.642 47.1522 553.618 47.0349 553.572 46.9254C553.525 46.8158 553.457 46.7163 553.372 46.6325C553.093 46.3581 552.936 45.9867 552.936 45.5994C552.936 45.2122 553.093 44.8407 553.372 44.5663C553.996 43.9539 554.346 43.1239 554.346 42.2586C554.346 41.3932 553.996 40.5633 553.372 39.9508C553.286 39.867 553.185 39.8005 553.073 39.7551C552.961 39.7098 552.841 39.6864 552.72 39.6864C552.599 39.6864 552.48 39.7098 552.368 39.7551C552.256 39.8005 552.154 39.867 552.069 39.9508C551.983 40.0346 551.916 40.1341 551.869 40.2436C551.823 40.3531 551.799 40.4705 551.799 40.589C551.799 40.7076 551.823 40.8249 551.869 40.9344C551.916 41.0439 551.983 41.1435 552.069 41.2273C552.348 41.5016 552.504 41.8731 552.504 42.2604C552.504 42.6476 552.348 43.0191 552.069 43.2935V43.2935C551.446 43.9058 551.096 44.735 551.096 45.5994C551.096 46.4639 551.446 47.2931 552.069 47.9054V47.909ZM543 68.1021C542.999 67.8637 543.095 67.6345 543.266 67.4649C543.437 67.2953 543.669 67.1989 543.913 67.197H550.343C548.385 65.9551 546.914 64.0991 546.173 61.9324C546.114 61.7569 546.057 61.579 546.003 61.3987C545.181 58.5642 544.667 55.6525 544.469 52.7121C544.449 52.3775 544.5 52.0425 544.617 51.7276C544.734 51.4127 544.915 51.1244 545.149 50.8803C545.386 50.6353 545.672 50.4399 545.988 50.306C546.304 50.1721 546.645 50.1025 546.99 50.1014H567.689C568.034 50.1025 568.375 50.1721 568.691 50.306C569.007 50.4399 569.292 50.6353 569.53 50.8803C569.764 51.1243 569.945 51.4125 570.063 51.7275C570.18 52.0424 570.23 52.3775 570.21 52.7121C570.174 53.3323 570.115 53.9706 570.037 54.616H570.582C571.253 54.6158 571.915 54.7653 572.518 55.053C573.12 55.3408 573.649 55.7592 574.062 56.2767C574.475 56.7942 574.763 57.3971 574.903 58.0396C575.043 58.6822 575.032 59.3475 574.87 59.9852C574.631 60.9207 574.081 61.7513 573.305 62.3452C572.53 62.939 571.574 63.262 570.59 63.263H567.925C567.08 64.8616 565.826 66.2174 564.285 67.197H570.582C570.826 67.197 571.06 67.292 571.233 67.4611C571.405 67.6301 571.502 67.8594 571.502 68.0985C571.502 68.3376 571.405 68.5669 571.233 68.736C571.06 68.905 570.826 69 570.582 69H543.913C543.67 68.9981 543.438 68.9023 543.267 68.7334C543.096 68.5646 543 68.3364 543 68.0985V68.1021ZM568.661 61.46H570.586C571.16 61.4592 571.717 61.2707 572.169 60.9245C572.621 60.5783 572.942 60.0942 573.081 59.5489C573.175 59.1775 573.181 58.7901 573.1 58.416C573.018 58.0419 572.851 57.6908 572.611 57.3893C572.37 57.0878 572.063 56.8438 571.712 56.6757C571.361 56.5076 570.976 56.4198 570.586 56.419H569.791C569.524 58.1001 569.155 59.7641 568.687 61.4023L568.661 61.46ZM556.279 67.1213H558.396C560.296 67.1301 562.148 66.5385 563.678 65.4342C565.207 64.3299 566.333 62.7718 566.887 60.9913L566.913 60.9083C567.7 58.2022 568.193 55.4223 568.385 52.6147C568.39 52.5256 568.376 52.4363 568.345 52.3525C568.313 52.2688 568.264 52.1923 568.201 52.1279C568.135 52.0602 568.056 52.0067 567.967 51.9707C567.879 51.9347 567.785 51.917 567.689 51.9188H546.997C546.902 51.918 546.808 51.9364 546.72 51.9731C546.633 52.0097 546.554 52.0636 546.489 52.1315C546.426 52.1959 546.377 52.2724 546.345 52.3561C546.314 52.4399 546.3 52.5292 546.305 52.6183C546.497 55.4259 546.99 58.2058 547.777 60.9119C547.822 61.067 547.869 61.2184 547.921 61.3663C548.52 63.0644 549.65 64.5343 551.151 65.5674C552.651 66.6005 554.446 67.1442 556.279 67.1213V67.1213Z" fill="#F5F7F9"/>
</g>
<path d="M52.296 67.384C56.584 67.384 59.56 65.272 61.224 61.144L57.96 60.312C57.128 62.904 55.432 64.888 52.328 64.888C50.12 64.888 48.488 64.12 47.464 62.68C46.344 61.08 45.96 58.776 45.96 55.8C45.96 52.76 46.376 50.392 47.56 48.824C48.68 47.352 50.312 46.712 52.392 46.712C55.624 46.712 57.352 48.92 57.928 51.672L61.096 51.064C59.976 46.52 56.584 44.216 52.36 44.216C45.96 44.216 42.664 49.016 42.664 55.8C42.664 63.288 46.056 67.384 52.296 67.384ZM84.7978 67H87.8058L79.8378 44.6H76.6698L68.6698 67H71.7098L73.9498 60.312H82.5258L84.7978 67ZM74.8138 57.752L77.0538 51C77.5338 49.592 77.8218 48.568 78.2058 47.384H78.2378C78.5258 48.344 79.0058 49.816 79.3898 51L81.6618 57.752H74.8138ZM97.607 67H100.487V56.984H110.567V54.392H100.487V47.192H111.751V44.6H97.607V67ZM122.385 67H136.657V64.408H125.265V56.984H135.537V54.392H125.265V47.192H136.657V44.6H122.385V67ZM175.296 67.384C179.584 67.384 182.56 65.272 184.224 61.144L180.96 60.312C180.128 62.904 178.432 64.888 175.328 64.888C173.12 64.888 171.488 64.12 170.464 62.68C169.344 61.08 168.96 58.776 168.96 55.8C168.96 52.76 169.376 50.392 170.56 48.824C171.68 47.352 173.312 46.712 175.392 46.712C178.624 46.712 180.352 48.92 180.928 51.672L184.096 51.064C182.976 46.52 179.584 44.216 175.36 44.216C168.96 44.216 165.664 49.016 165.664 55.8C165.664 63.288 169.056 67.384 175.296 67.384ZM202.164 67.384C208.34 67.384 211.732 62.68 211.732 55.8C211.732 48.984 208.34 44.216 202.164 44.216C195.891 44.216 192.532 48.952 192.532 55.8C192.532 63.288 195.988 67.384 202.164 67.384ZM202.164 64.888C200.116 64.888 198.452 64.152 197.396 62.808C196.34 61.464 195.828 59 195.828 55.8C195.828 52.792 196.308 50.296 197.428 48.792C198.324 47.576 199.988 46.712 202.292 46.712C204.372 46.712 205.972 47.48 206.964 48.984C208.02 50.584 208.468 52.888 208.468 55.8C208.468 58.872 207.956 61.304 206.772 62.872C205.78 64.216 204.212 64.888 202.164 64.888ZM236.983 61.4C236.983 59.096 236.183 57.464 234.071 56.664C236.023 55.992 237.527 53.944 237.527 51.192C237.527 45.112 232.727 44.6 228.791 44.6H221.591V67H224.471V57.72H229.079C232.951 57.72 234.103 58.744 234.103 61.72C234.103 64.824 234.327 65.88 235.063 67H238.231L238.263 66.904C237.175 65.528 236.983 63.992 236.983 61.4ZM228.759 55.256H224.471V47.096H228.791C231.479 47.096 234.679 47.096 234.679 51.32C234.679 55.032 231.479 55.256 228.759 55.256ZM247.963 67H250.811V54.168C250.811 53.56 250.747 50.648 250.651 48.504H250.683C251.547 50.2 252.795 52.664 253.275 53.528L260.955 67H264.219V44.6H261.371V57.272C261.371 58.2 261.435 61.048 261.531 62.904H261.499C260.571 61.144 259.675 59.352 258.843 57.912L251.163 44.6H247.963V67ZM275.76 67H290.032V64.408H278.64V56.984H288.912V54.392H278.64V47.192H290.032V44.6H275.76V67ZM315.827 61.4C315.827 59.096 315.027 57.464 312.915 56.664C314.867 55.992 316.371 53.944 316.371 51.192C316.371 45.112 311.571 44.6 307.635 44.6H300.435V67H303.315V57.72H307.923C311.795 57.72 312.947 58.744 312.947 61.72C312.947 64.824 313.171 65.88 313.907 67H317.075L317.107 66.904C316.019 65.528 315.827 63.992 315.827 61.4ZM307.603 55.256H303.315V47.096H307.635C310.323 47.096 313.523 47.096 313.523 51.32C313.523 55.032 310.323 55.256 307.603 55.256ZM361.827 61.4C361.827 59.096 361.027 57.464 358.915 56.664C360.867 55.992 362.371 53.944 362.371 51.192C362.371 45.112 357.571 44.6 353.635 44.6H346.435V67H349.315V57.72H353.923C357.795 57.72 358.947 58.744 358.947 61.72C358.947 64.824 359.171 65.88 359.907 67H363.075L363.107 66.904C362.019 65.528 361.827 63.992 361.827 61.4ZM353.603 55.256H349.315V47.096H353.635C356.323 47.096 359.523 47.096 359.523 51.32C359.523 55.032 356.323 55.256 353.603 55.256ZM373.479 67H387.751V64.408H376.359V56.984H386.631V54.392H376.359V47.192H387.751V44.6H373.479V67ZM403.978 67H406.986L414.634 44.6H411.498L407.466 57.432C406.346 60.92 405.674 63.288 405.514 63.768H405.482C405.258 63.096 404.586 60.92 403.498 57.432L399.466 44.6H396.33L403.978 67ZM432.48 47.128V44.6H424.256V47.128H426.912V64.472H424.256V67H432.48V64.472H429.824V47.128H432.48ZM444.51 67H458.782V64.408H447.39V56.984H457.662V54.392H447.39V47.192H458.782V44.6H444.51V67ZM471.553 67H474.945L477.633 55.704C478.113 53.656 478.497 51.8 478.753 50.328H478.817C479.073 51.736 479.521 53.784 479.969 55.672L482.721 67H486.049L490.241 44.6H487.201L485.185 58.072C484.865 60.248 484.577 62.104 484.417 63.48H484.353C484.065 62.072 483.713 60.504 483.137 58.072L480.417 46.84H477.249L474.529 58.072C474.113 59.864 473.601 62.104 473.345 63.48H473.281C473.089 62.04 472.993 61.208 472.449 58.072L470.401 44.6H467.361L471.553 67ZM507.305 67.384C511.401 67.384 515.945 65.912 515.945 60.472C515.945 55.768 512.297 54.936 508.009 54.2C505.097 53.688 501.865 52.952 501.865 50.392C501.865 47.864 504.297 46.616 506.665 46.616C510.025 46.616 512.105 48.504 512.233 51.736L515.241 51.192C514.729 46.008 511.049 44.216 506.633 44.216C503.049 44.216 498.889 45.976 498.889 50.52C498.889 54.744 502.569 56.024 505.929 56.824C509.161 57.624 512.937 57.592 512.937 60.696C512.937 63.864 510.249 64.952 507.209 64.952C503.881 64.952 501.417 63.032 501.321 59.544L498.249 59.864C498.345 64.984 502.505 67.384 507.305 67.384Z" fill="#F5F7F9"/>
<defs>
<filter id="filter0_f" x="0" y="0" width="616" height="113" filterUnits="userSpaceOnUse" color-interpolation-filters="sRGB">
<feFlood flood-opacity="0" result="BackgroundImageFix"/>
<feBlend mode="normal" in="SourceGraphic" in2="BackgroundImageFix" result="shape"/>
<feGaussianBlur stdDeviation="5" result="effect1_foregroundBlur"/>
</filter>
<filter id="filter1_f" x="37.6639" y="39.2158" width="483.281" height="33.168" filterUnits="userSpaceOnUse" color-interpolation-filters="sRGB">
<feFlood flood-opacity="0" result="BackgroundImageFix"/>
<feBlend mode="normal" in="SourceGraphic" in2="BackgroundImageFix" result="shape"/>
<feGaussianBlur stdDeviation="2.5" result="effect1_foregroundBlur"/>
</filter>
<filter id="filter2_f" x="542" y="36" width="34" height="34" filterUnits="userSpaceOnUse" color-interpolation-filters="sRGB">
<feFlood flood-opacity="0" result="BackgroundImageFix"/>
<feBlend mode="normal" in="SourceGraphic" in2="BackgroundImageFix" result="shape"/>
<feGaussianBlur stdDeviation="0.5" result="effect1_foregroundBlur"/>
</filter>
</defs>
</svg>
