<svg width="84" height="30" viewBox="0 0 84 30" fill="none" xmlns="http://www.w3.org/2000/svg">
<path d="M25.8696 20L25.0876 20.6233L25.3878 21H25.8696V20ZM16.3043 8L17.0863 7.37669L16.7861 7H16.3043V8ZM0.292893 7.29289C-0.0976311 7.68342 -0.0976311 8.31658 0.292893 8.70711L6.65685 15.0711C7.04738 15.4616 7.68054 15.4616 8.07107 15.0711C8.46159 14.6805 8.46159 14.0474 8.07107 13.6569L2.41421 8L8.07107 2.34315C8.46159 1.95262 8.46159 1.31946 8.07107 0.928932C7.68054 0.538408 7.04738 0.538408 6.65685 0.928932L0.292893 7.29289ZM45 19L25.8696 19V21L45 21V19ZM26.6515 19.3767L17.0863 7.37669L15.5224 8.62331L25.0876 20.6233L26.6515 19.3767ZM16.3043 7L1 7V9L16.3043 9V7Z" fill="#F5F7F9"/>
<path d="M53.328 24H60.56V22.704H54.768V18.992H59.968V17.696H54.768V14.096H60.56V12.8H53.328V24ZM67.8725 19.824L70.6565 16H69.0885L67.8245 17.808C67.5525 18.192 67.3125 18.576 67.1365 18.848C66.9765 18.592 66.7365 18.192 66.4645 17.808L65.1685 16H63.6165L66.3845 19.824L63.3765 24H64.9285L66.2565 22.112C66.5445 21.696 66.9445 21.056 67.1365 20.752C67.3445 21.088 67.7125 21.696 68.0005 22.112L69.3285 24H70.8805L67.8725 19.824ZM73.9935 14.496H75.4335V12.8H73.9935V14.496ZM73.9935 24H75.4335V16H73.9935V24ZM82.1324 24.08C82.4844 24.08 82.8044 24.032 83.0124 24L82.9804 22.704C82.7084 22.752 82.4204 22.784 82.2444 22.784C81.6524 22.784 81.4124 22.688 81.4124 22.16V17.2H83.0444V16H81.4124V13.776H79.9884V16H78.8364V17.2H79.9884V22.208C79.9884 23.504 80.6444 24.08 82.1324 24.08Z" fill="#F5F7F9"/>
</svg>
