<svg width="32" height="14" viewBox="0 0 32 14" fill="none" xmlns="http://www.w3.org/2000/svg">
<path d="M25.118 0C22.42 0 20.064 1.61046 18.962 3.91111C18.012 3.68105 16.986 3.52767 15.96 3.52767C14.896 3.52767 13.908 3.6427 12.958 3.91111C11.856 1.61046 9.5 0 6.802 0C3.04 0 0 3.06754 0 6.86362C0 10.1612 2.318 12.922 5.396 13.6122C5.776 13.6889 6.156 13.7272 6.574 13.7656C6.65 13.7656 6.726 13.7656 6.802 13.7656C10.564 13.7656 13.604 10.698 13.604 6.90196C13.604 6.25011 13.49 5.59826 13.338 5.02309C14.174 4.83137 15.048 4.71634 15.922 4.71634C16.834 4.71634 17.708 4.83137 18.506 5.02309C18.316 5.6366 18.24 6.25011 18.24 6.90196C18.24 10.698 21.28 13.7656 25.042 13.7656C25.118 13.7656 25.194 13.7656 25.27 13.7656C25.688 13.7656 26.068 13.7272 26.448 13.6122C29.602 12.9603 31.92 10.1996 31.92 6.86362C31.92 3.06754 28.88 0 25.118 0ZM12.502 6.86362C12.502 10.0078 9.956 12.5769 6.84 12.5769C6.726 12.5769 6.612 12.5769 6.498 12.5769C6.118 12.5386 5.738 12.5002 5.358 12.3852C2.926 11.7717 1.14 9.50937 1.14 6.86362C1.14 3.71939 3.686 1.15033 6.802 1.15033C9.006 1.15033 10.868 2.41569 11.818 4.21786C12.008 4.56296 12.122 4.90806 12.236 5.2915C12.426 5.78998 12.502 6.3268 12.502 6.86362ZM26.562 12.4235C26.182 12.5386 25.802 12.5769 25.422 12.6153C25.308 12.6153 25.194 12.6153 25.08 12.6153C21.964 12.6153 19.418 10.0462 19.418 6.90196C19.418 6.36514 19.494 5.82832 19.646 5.32985C19.76 4.94641 19.912 4.60131 20.064 4.25621C21.014 2.41569 22.914 1.18867 25.08 1.18867C28.234 1.15033 30.78 3.71939 30.78 6.86362C30.78 9.50937 28.994 11.7717 26.562 12.4235Z" fill="#F5F7F9"/>
</svg>
