<svg width="32" height="32" viewBox="0 0 32 32" fill="none" xmlns="http://www.w3.org/2000/svg">
<circle cx="16" cy="16" r="16" fill="#222222"/>
<path d="M7.80663 22H12.9586L13.0066 21.84H11.2626L14.8626 10.032H17.8706C18.2066 10.032 18.2386 10.032 18.2706 10.336L18.6066 13.904H18.7026L19.6946 9.12H19.5986L18.1746 9.872H10.0146L9.03863 9.12H8.94263L6.99063 13.904H7.08663L9.66263 10.336C9.88663 10.032 9.88663 10.032 10.2226 10.032H13.1986L9.59863 21.84H7.85463L7.80663 22ZM21.1115 22.208C24.0715 22.208 26.1995 20.256 26.1995 18.24C26.1995 17.12 25.5435 16.368 24.6635 15.328L23.5915 14.08C23.0795 13.472 22.6155 12.96 22.6155 11.936C22.6155 10.48 24.0075 9.68 25.2875 9.68C27.0155 9.68 27.6235 11.04 27.7675 13.904H27.8635L28.5195 9.584H28.4235L27.5755 10.272C27.2235 9.872 26.2315 9.536 25.3835 9.536C23.4475 9.536 21.1595 10.848 21.1595 12.912C21.1595 13.856 21.6235 14.624 22.3275 15.456L23.3995 16.704C24.1995 17.648 24.5675 18.288 24.5675 19.2C24.5675 21.088 22.8875 22.064 21.1275 22.064C19.4315 22.064 18.7595 20.848 18.6795 17.616H18.5835L17.8955 22.16H17.9915L18.8395 21.472C19.3515 21.904 20.1355 22.208 21.1115 22.208Z" fill="white"/>
</svg>
