<svg width="137" height="77" viewBox="0 0 137 77" fill="none" xmlns="http://www.w3.org/2000/svg">
<rect y="19" width="80" height="19" fill="#D4D6DC"/>
<path d="M9.048 33H10.504V23.064H14.088V21.8H5.464V23.064H9.048V33ZM18.4871 33.192C20.8871 33.192 22.4711 31.512 22.4711 29C22.4711 26.584 20.9351 24.808 18.4871 24.808C16.0071 24.808 14.4871 26.568 14.4871 29C14.4871 31.608 15.9911 33.192 18.4871 33.192ZM18.4871 32.056C16.6311 32.056 16.0391 30.888 16.0391 29C16.0391 27.112 16.6471 25.944 18.4871 25.944C20.2951 25.944 20.9191 27.112 20.9191 29C20.9191 30.888 20.2951 32.056 18.4871 32.056ZM28.4984 24.808C27.4264 24.808 26.5624 25.256 25.9704 26.168V25H24.5304V36.2H25.9704V31.96C26.5784 32.808 27.4264 33.192 28.5464 33.192C30.7064 33.192 32.1784 31.528 32.1784 29C32.1784 26.392 30.6264 24.808 28.4984 24.808ZM28.2104 32.04C26.2584 32.04 25.9224 30.472 25.9224 28.984C25.9224 26.968 26.7064 25.944 28.2424 25.944C30.1144 25.944 30.5944 27.128 30.5944 29C30.5944 30.92 30.0024 32.04 28.2104 32.04ZM44.8578 24.808C43.7858 24.808 42.9218 25.256 42.3298 26.168V25H40.8898V36.2H42.3298V31.96C42.9378 32.808 43.7858 33.192 44.9058 33.192C47.0658 33.192 48.5378 31.528 48.5378 29C48.5378 26.392 46.9858 24.808 44.8578 24.808ZM44.5698 32.04C42.6178 32.04 42.2818 30.472 42.2818 28.984C42.2818 26.968 43.0658 25.944 44.6018 25.944C46.4738 25.944 46.9538 27.128 46.9538 29C46.9538 30.92 46.3618 32.04 44.5698 32.04ZM53.5391 21.672H51.9551V23.528H53.5391V21.672ZM53.5231 31.784V25H50.7231V26.216H52.0831V31.784H50.4991V33H54.9951V31.784H53.5231ZM60.8495 33.192C62.7055 33.192 64.0975 32.168 64.3855 30.552L63.0255 30.408C62.7215 31.56 62.0815 32.04 60.8495 32.04C58.9135 32.04 58.4655 30.808 58.4655 29C58.4655 27.24 58.8975 25.96 60.8495 25.96C62.2895 25.96 62.7695 26.872 63.0095 27.8L64.3535 27.544C64.0335 26.024 62.8815 24.808 60.8495 24.808C58.4015 24.808 56.8815 26.536 56.8815 29C56.8815 31.624 58.4015 33.192 60.8495 33.192ZM71.8923 33H73.5723L70.2763 27.944L73.4283 25H71.4763L68.1323 28.312V21.8H66.6923V33H68.1323V29.944L69.2523 28.888L71.8923 33Z" fill="black"/>
<path d="M121.371 22.5223L119.95 21.0465C119.369 20.469 119.11 19.6348 119.24 18.8007L119.498 16.8115C119.692 15.3998 118.723 14.0523 117.302 13.7957L115.3 13.4748C114.46 13.3465 113.815 12.8332 113.427 12.1273L112.458 10.3307C111.812 9.04733 110.198 8.53399 108.906 9.17566L107.098 10.074C106.323 10.459 105.483 10.459 104.773 10.074L102.965 9.17566C101.673 8.53399 100.123 9.04733 99.4125 10.3307L98.5083 12.1915C98.1208 12.8973 97.4104 13.4107 96.6354 13.539L94.6333 13.8598C93.2125 14.1165 92.2437 15.3998 92.4375 16.8115L92.6958 18.8007C92.825 19.6348 92.5667 20.4048 91.9854 20.9823L90.5646 22.4582C89.5958 23.4848 89.5312 25.1532 90.5646 26.1798L91.9854 27.6557C92.5667 28.2332 92.825 29.0673 92.6958 29.9015L92.4375 31.8907C92.2437 33.3023 93.2125 34.6498 94.6333 34.9065L96.6354 35.2273C97.475 35.3557 98.1208 35.869 98.5083 36.5748L99.4771 38.3715C100.123 39.6548 101.737 40.1682 103.029 39.5265L104.837 38.6282C105.612 38.2432 106.452 38.2432 107.162 38.6282L108.971 39.5265C110.262 40.1682 111.812 39.6548 112.523 38.3715L113.492 36.5748C113.879 35.869 114.59 35.3557 115.365 35.2273L117.367 34.9065C118.787 34.6498 119.756 33.3665 119.562 31.9548L119.304 29.9657C119.175 29.1315 119.433 28.3615 120.015 27.784L121.435 26.3082C122.404 25.2173 122.404 23.549 121.371 22.5223ZM108.583 32.2757C107.744 32.5323 106.84 32.6607 106 32.6607C102.383 32.6607 99.1542 30.3507 98.0562 26.8857C97.3458 24.7682 97.5396 22.5223 98.5729 20.5332C99.6062 18.544 101.35 17.0682 103.481 16.3623C104.321 16.1057 105.225 15.9773 106.065 15.9773C109.681 15.9773 112.91 18.2873 114.008 21.7523C115.429 26.1798 112.975 30.864 108.583 32.2757Z" fill="#ADC9FF"/>
<path d="M112.781 22.2017C111.554 18.4801 107.55 16.4909 103.804 17.6459C100.058 18.8651 98.0563 22.8434 99.2188 26.5651C100.446 30.2867 104.45 32.2759 108.196 31.1209C111.942 29.9017 113.944 25.9234 112.781 22.2017ZM107.808 29.8376C107.227 30.0301 106.581 30.1584 106 30.1584C103.481 30.1584 101.285 28.5542 100.51 26.1801C100.058 24.7042 100.123 23.1642 100.833 21.7526C101.544 20.4051 102.706 19.3784 104.192 18.8651C104.773 18.6726 105.354 18.6084 106 18.6084C108.519 18.6084 110.715 20.2126 111.49 22.5867C112.523 25.6026 110.844 28.8751 107.808 29.8376Z" fill="#ADC9FF"/>
<path d="M113.75 38.821L115.042 55.1835L106 48.1252L96.9583 55.1835L98.25 38.7568L98.3146 38.9493C99.025 40.2327 100.317 41.0668 101.802 41.0668C102.383 41.0668 102.965 40.9385 103.546 40.6818L105.354 39.7835C105.548 39.7193 105.742 39.6552 105.935 39.6552C106.129 39.6552 106.323 39.7193 106.517 39.7835L108.325 40.6818C108.842 40.9385 109.487 41.0668 110.069 41.0668C111.554 41.0668 112.846 40.2968 113.556 38.9493L113.75 38.821Z" fill="#ADC9FF"/>
</svg>
