<svg width="8" height="11" viewBox="0 0 8 11" fill="none" xmlns="http://www.w3.org/2000/svg">
<path d="M6.54545 4.03333H6.18182V2.2C6.18182 1.61652 5.95195 1.05695 5.54278 0.644365C5.13361 0.231785 4.57865 0 4 0C3.42135 0 2.86639 0.231785 2.45722 0.644365C2.04805 1.05695 1.81818 1.61652 1.81818 2.2V4.03333H1.45455C1.06891 4.03376 0.699181 4.18842 0.426492 4.46338C0.153803 4.73834 0.000421103 5.11115 0 5.5V9.53333C0.000421103 9.92219 0.153803 10.295 0.426492 10.57C0.699181 10.8449 1.06891 10.9996 1.45455 11H6.54545C6.93109 10.9996 7.30082 10.8449 7.57351 10.57C7.8462 10.295 7.99958 9.92219 8 9.53333V5.5C7.99958 5.11115 7.8462 4.73834 7.57351 4.46338C7.30082 4.18842 6.93109 4.03376 6.54545 4.03333V4.03333ZM5.45455 4.03333H2.54545V2.2C2.54545 1.81102 2.6987 1.43796 2.97148 1.16291C3.24426 0.887857 3.61423 0.733333 4 0.733333C4.38577 0.733333 4.75574 0.887857 5.02852 1.16291C5.3013 1.43796 5.45455 1.81102 5.45455 2.2V4.03333Z" fill="white"/>
</svg>
