<svg width="34" height="36" viewBox="0 0 34 36" fill="none" xmlns="http://www.w3.org/2000/svg">
<path d="M26.5001 17.1987C25.8541 17.1987 25.3601 17.7251 25.3601 18.3643V28.3283H8.64011V7.27228H23.6501L14.3781 16.4091C14.2641 16.5219 14.1881 16.6347 14.1501 16.7475L11.6041 23.6659C11.5281 23.8915 11.7561 24.1171 11.9841 24.0419L19.0141 21.5227C19.1661 21.4475 19.2801 21.3723 19.3561 21.2971L33.5681 7.23468L28.6281 2.34668L25.9301 5.09148C25.7021 5.01628 25.5121 5.01628 25.3221 5.01628H7.50011C6.85411 5.01628 6.36011 5.39228 6.36011 6.06908V29.5691C6.36011 30.2083 6.85411 30.6219 7.50011 30.6219H26.5001C27.1461 30.6219 27.6401 30.2459 27.6401 29.5691V18.4019C27.6401 17.7251 27.1461 17.1987 26.5001 17.1987ZM30.1481 7.23468L17.9501 19.3043L16.2401 19.4547L16.3921 17.7251L28.5901 5.65548L30.1481 7.23468Z" fill="#F5F7F9"/>
</svg>
