<svg width="168" height="69" viewBox="0 0 168 69" fill="none" xmlns="http://www.w3.org/2000/svg">
<path d="M6.072 36H8.256V21.096H13.632V19.2H0.696V21.096H6.072V36ZM20.2307 36.288C23.8307 36.288 26.2067 33.768 26.2067 30C26.2067 26.376 23.9027 23.712 20.2307 23.712C16.5107 23.712 14.2307 26.352 14.2307 30C14.2307 33.912 16.4867 36.288 20.2307 36.288ZM20.2307 34.584C17.4467 34.584 16.5587 32.832 16.5587 30C16.5587 27.168 17.4707 25.416 20.2307 25.416C22.9427 25.416 23.8787 27.168 23.8787 30C23.8787 32.832 22.9427 34.584 20.2307 34.584ZM35.2476 23.712C33.6396 23.712 32.3436 24.384 31.4556 25.752V24H29.2956V40.8H31.4556V34.44C32.3676 35.712 33.6396 36.288 35.3196 36.288C38.5596 36.288 40.7676 33.792 40.7676 30C40.7676 26.088 38.4396 23.712 35.2476 23.712ZM34.8156 34.56C31.8876 34.56 31.3836 32.208 31.3836 29.976C31.3836 26.952 32.5596 25.416 34.8636 25.416C37.6716 25.416 38.3916 27.192 38.3916 30C38.3916 32.88 37.5036 34.56 34.8156 34.56ZM59.7866 23.712C58.1786 23.712 56.8826 24.384 55.9946 25.752V24H53.8346V40.8H55.9946V34.44C56.9066 35.712 58.1786 36.288 59.8586 36.288C63.0986 36.288 65.3066 33.792 65.3066 30C65.3066 26.088 62.9786 23.712 59.7866 23.712ZM59.3546 34.56C56.4266 34.56 55.9226 32.208 55.9226 29.976C55.9226 26.952 57.0986 25.416 59.4026 25.416C62.2106 25.416 62.9306 27.192 62.9306 30C62.9306 32.88 62.0426 34.56 59.3546 34.56ZM72.8087 19.008H70.4327V21.792H72.8087V19.008ZM72.7847 34.176V24H68.5847V25.824H70.6247V34.176H68.2487V36H74.9927V34.176H72.7847ZM83.7743 36.288C86.5583 36.288 88.6463 34.752 89.0782 32.328L87.0383 32.112C86.5823 33.84 85.6223 34.56 83.7743 34.56C80.8703 34.56 80.1983 32.712 80.1983 30C80.1983 27.36 80.8463 25.44 83.7743 25.44C85.9343 25.44 86.6543 26.808 87.0143 28.2L89.0303 27.816C88.5503 25.536 86.8223 23.712 83.7743 23.712C80.1023 23.712 77.8223 26.304 77.8223 30C77.8223 33.936 80.1023 36.288 83.7743 36.288ZM100.338 36H102.858L97.9144 28.416L102.642 24H99.7144L94.6984 28.968V19.2H92.5384V36H94.6984V31.416L96.3784 29.832L100.338 36Z" fill="black"/>
<path d="M154.135 20.1822L152.875 18.8597C152.359 18.3422 152.13 17.5947 152.245 16.8472L152.474 15.0647C152.646 13.7997 151.786 12.5922 150.526 12.3622L148.75 12.0747C148.005 11.9597 147.432 11.4997 147.089 10.8672L146.229 9.25715C145.656 8.10715 144.224 7.64715 143.078 8.22215L141.474 9.02715C140.786 9.37215 140.042 9.37215 139.411 9.02715L137.807 8.22215C136.661 7.64715 135.286 8.10715 134.656 9.25715L133.854 10.9247C133.51 11.5572 132.88 12.0172 132.193 12.1322L130.417 12.4197C129.156 12.6497 128.297 13.7997 128.469 15.0647L128.698 16.8472C128.813 17.5947 128.583 18.2847 128.068 18.8022L126.807 20.1247C125.948 21.0447 125.891 22.5397 126.807 23.4597L128.068 24.7822C128.583 25.2997 128.813 26.0472 128.698 26.7947L128.469 28.5772C128.297 29.8422 129.156 31.0497 130.417 31.2797L132.193 31.5672C132.938 31.6822 133.51 32.1422 133.854 32.7747L134.714 34.3847C135.286 35.5347 136.719 35.9947 137.865 35.4197L139.469 34.6147C140.156 34.2697 140.901 34.2697 141.531 34.6147L143.135 35.4197C144.281 35.9947 145.656 35.5347 146.286 34.3847L147.146 32.7747C147.49 32.1422 148.12 31.6822 148.807 31.5672L150.583 31.2797C151.844 31.0497 152.703 29.8997 152.531 28.6347L152.302 26.8522C152.188 26.1047 152.417 25.4147 152.932 24.8972L154.193 23.5747C155.052 22.5972 155.052 21.1022 154.135 20.1822ZM142.792 28.9222C142.047 29.1522 141.245 29.2672 140.5 29.2672C137.292 29.2672 134.427 27.1972 133.453 24.0922C132.823 22.1947 132.995 20.1822 133.911 18.3997C134.828 16.6172 136.375 15.2947 138.266 14.6622C139.01 14.4322 139.813 14.3172 140.557 14.3172C143.766 14.3172 146.63 16.3872 147.604 19.4922C148.865 23.4597 146.688 27.6572 142.792 28.9222Z" fill="#ADC9FF"/>
<path d="M146.516 19.8946C145.427 16.5596 141.875 14.7771 138.552 15.8121C135.229 16.9046 133.453 20.4696 134.484 23.8046C135.573 27.1396 139.125 28.9221 142.448 27.8871C145.771 26.7946 147.547 23.2296 146.516 19.8946ZM142.104 26.7371C141.589 26.9096 141.016 27.0246 140.5 27.0246C138.266 27.0246 136.318 25.5871 135.63 23.4596C135.229 22.1371 135.286 20.7571 135.917 19.4921C136.547 18.2846 137.578 17.3646 138.896 16.9046C139.411 16.7321 139.927 16.6746 140.5 16.6746C142.734 16.6746 144.682 18.1121 145.37 20.2396C146.286 22.9421 144.797 25.8746 142.104 26.7371Z" fill="#ADC9FF"/>
<path d="M147.375 34.788L148.521 49.4505L140.5 43.1255L132.479 49.4505L133.625 34.7305L133.682 34.903C134.312 36.053 135.458 36.8005 136.776 36.8005C137.292 36.8005 137.807 36.6855 138.323 36.4555L139.927 35.6505C140.099 35.593 140.271 35.5355 140.443 35.5355C140.615 35.5355 140.786 35.593 140.958 35.6505L142.562 36.4555C143.021 36.6855 143.594 36.8005 144.109 36.8005C145.427 36.8005 146.573 36.1105 147.203 34.903L147.375 34.788Z" fill="#ADC9FF"/>
</svg>
