<svg width="113" height="85" viewBox="0 0 113 85" fill="none" xmlns="http://www.w3.org/2000/svg">
<g clip-path="url(#clip0)">
<path d="M94.8085 3.29262C80.8784 19.6023 66.9484 35.9119 53.0183 52.2215C47.5686 46.1244 42.1186 40.0272 36.6687 33.9299C33.9626 30.9025 29.5346 35.3776 32.2296 38.3926C38.4361 45.3362 44.6426 52.28 50.8492 59.2238C51.9224 60.4245 54.2248 60.469 55.2883 59.2238C69.9415 42.0676 84.5944 24.9115 99.2475 7.75521C101.867 4.68864 97.4457 0.20485 94.8085 3.29262Z" fill="#7AA8FF"/>
<path d="M89.5947 30.791C94.9119 48.0297 88.0228 66.8035 71.7312 75.1302C57.1792 82.568 38.8617 78.9651 28.1503 66.5928C17.4089 54.1857 16.3288 35.5567 25.6324 22.0065C36.4844 6.2008 57.4597 2.1738 73.8795 11.4169C77.4085 13.4034 80.5773 7.95415 77.048 5.96741C47.4882 -10.6725 9.51054 12.242 13.2015 47.0361C16.5999 79.0721 54.4363 96.3804 80.459 77.0952C95.4079 66.0165 101.1 46.7868 95.6482 29.1133C94.4554 25.2462 88.3933 26.8963 89.5947 30.791Z" fill="#7AA8FF"/>
</g>
<defs>
<clipPath id="clip0">
<rect width="113" height="85" fill="white"/>
</clipPath>
</defs>
</svg>
