<svg width="260" height="47" viewBox="0 0 260 47" fill="none" xmlns="http://www.w3.org/2000/svg">
<path d="M11.712 46H29.744V45.44H23.64V4.112H34.112C35.288 4.112 35.344 4.112 35.792 5.176L40.888 17.664H41.224L39.544 0.919996H39.208L35.008 3.552H6.448L2.248 0.919996H1.912L0.232 17.664H0.568L5.664 5.176C6.112 4.112 6.168 4.112 7.344 4.112H17.816V45.44H11.712V46ZM50.6071 10.104C52.5111 10.104 54.0231 8.648 54.0231 6.688C54.0231 4.784 52.5111 3.272 50.6071 3.272C48.6471 3.272 47.1911 4.784 47.1911 6.688C47.1911 8.648 48.6471 10.104 50.6071 10.104ZM53.2391 17.552L43.8311 21.024V21.248L48.1991 23.6V45.44H43.8311V46H57.6071V45.44H53.2391V17.552ZM74.1227 45.44H69.7547V28.248C69.7547 22.312 72.1067 19.68 76.1387 19.68C79.6107 19.68 82.1307 21.976 82.1307 28.248V45.44H77.7627V46H91.5387V45.44H87.1707V28.248C87.1707 22.312 89.5227 19.68 93.5547 19.68C97.0267 19.68 99.5467 21.976 99.5467 28.248V45.44H95.1787V46H108.955V45.44H104.587V27.8C104.587 20.016 100.779 17.384 96.0187 17.384C91.7067 17.384 88.1227 19.68 86.9467 24.776C86.0507 19.344 82.6907 17.384 78.6027 17.384C74.2347 17.384 70.9867 19.68 69.7547 24.16V17.552L60.3467 21.024V21.248L64.7147 23.6V45.44H60.3467V46H74.1227V45.44ZM126.43 46.728C133.598 46.728 138.526 42.864 139.87 34.464H139.478C137.574 42.024 132.59 43.368 128.726 43.368C122.51 43.368 117.974 37.824 117.974 29.704C117.974 28.696 118.03 27.8 118.142 26.904H138.582C136.51 19.12 130.686 17.384 126.318 17.384C118.87 17.384 112.262 23.208 112.262 32.168C112.262 41.24 118.366 46.728 126.43 46.728ZM126.206 17.888C130.574 17.888 132.086 21.752 132.086 23.656C132.086 25.896 131.414 26.288 127.662 26.288H118.254C119.15 20.912 122.342 17.888 126.206 17.888ZM159.15 46.728C166.598 46.728 174.102 41.856 174.102 34.128C174.102 27.408 168.558 23.88 162.062 21.528L158.086 20.072C152.99 18.224 150.526 15.2 150.526 10.664C150.526 5.736 154.446 2.88 158.702 2.88C164.75 2.88 167.83 7.64 171.806 17.664H172.142L169.23 2.544H168.894L166.878 4.784C165.142 3.328 161.838 2.376 158.982 2.376C153.214 2.376 145.822 5.848 145.822 13.52C145.822 19.064 149.35 23.6 156.294 26.12L160.27 27.576C165.758 29.592 169.23 32.056 169.23 37.432C169.23 42.472 165.198 46.224 159.262 46.224C153.214 46.224 149.518 41.24 145.542 30.712H145.206L148.118 46.56H148.454L150.47 44.32C152.318 45.664 155.79 46.728 159.15 46.728ZM185.795 10.104C187.699 10.104 189.211 8.648 189.211 6.688C189.211 4.784 187.699 3.272 185.795 3.272C183.835 3.272 182.379 4.784 182.379 6.688C182.379 8.648 183.835 10.104 185.795 10.104ZM188.427 17.552L179.019 21.024V21.248L183.387 23.6V45.44H179.019V46H192.795V45.44H188.427V17.552ZM195.534 46H209.31V45.44H204.942V28.248C204.942 22.312 207.294 19.68 211.326 19.68C214.798 19.68 217.318 21.976 217.318 28.248V45.44H212.95V46H226.726V45.44H222.358V27.8C222.358 20.016 218.55 17.384 213.79 17.384C209.422 17.384 206.174 19.68 204.942 24.16V17.552L195.534 21.024V21.248L199.902 23.6V45.44H195.534V46ZM232.132 46H237.172V30.488L252.684 46H259.852L243.5 29.704H237.228L245.404 22.2H252.74L257.444 17.888H249.268L237.172 28.976V3.552H227.764V4.112H232.132V46Z" fill="#F5F7F9"/>
</svg>
