<svg width="300" height="57" viewBox="0 0 300 57" fill="none" xmlns="http://www.w3.org/2000/svg">
<path d="M41.2664 9.84H23.9064V56H17.6664V9.84H0.226367V4H41.2664V9.84ZM51.4239 7.76H43.2639V-3.8147e-06H51.4239V7.76ZM50.4639 16V56H44.2239V16H50.4639ZM103.638 15.2C107.852 15.2 111.158 16.4533 113.558 18.96C116.012 21.4667 117.238 24.88 117.238 29.2V56H110.998V30.8C110.998 24.6133 108.145 21.52 102.438 21.52C99.8782 21.52 97.5316 22.32 95.3982 23.92C93.2649 25.4667 91.6916 27.5467 90.6782 30.16V56H84.4382V30.8C84.4382 24.6133 81.5849 21.52 75.8782 21.52C72.9449 21.52 70.3316 22.5067 68.0382 24.48C65.7449 26.4533 64.2249 29.04 63.4782 32.24V56H57.2382V16H63.4782V27.44C64.3849 23.7067 66.0649 20.7467 68.5182 18.56C70.9716 16.32 73.8249 15.2 77.0782 15.2C80.7582 15.2 83.7449 16.16 86.0382 18.08C88.3849 19.9467 89.8516 22.5867 90.4382 26C91.5049 22.6933 93.2116 20.08 95.5582 18.16C97.9049 16.1867 100.598 15.2 103.638 15.2ZM157.396 43.2C156.703 47.1467 154.863 50.4 151.876 52.96C148.89 55.52 145.183 56.8 140.756 56.8C137.13 56.8 133.823 55.92 130.836 54.16C127.85 52.3467 125.503 49.8667 123.796 46.72C122.09 43.5733 121.236 40.0267 121.236 36.08C121.236 32.1333 122.063 28.5867 123.716 25.44C125.37 22.24 127.636 19.7333 130.516 17.92C133.45 16.1067 136.73 15.2 140.356 15.2C145.796 15.2 150.036 16.9333 153.076 20.4C156.116 23.8667 157.636 28.8267 157.636 35.28C157.636 36.3467 157.61 37.1467 157.556 37.68H127.476C127.85 41.52 129.263 44.6667 131.716 47.12C134.223 49.52 137.236 50.72 140.756 50.72C143.37 50.72 145.636 50.0267 147.556 48.64C149.476 47.2533 150.783 45.44 151.476 43.2H157.396ZM139.956 21.28C137.023 21.28 134.463 22.24 132.276 24.16C130.143 26.0267 128.676 28.5333 127.876 31.68H151.236C150.97 28.3733 149.796 25.8133 147.716 24C145.636 22.1867 143.05 21.28 139.956 21.28ZM165.5 39.2C165.66 41.44 166.38 43.4667 167.66 45.28C168.94 47.04 170.593 48.4267 172.62 49.44C174.647 50.4533 176.807 50.96 179.1 50.96C181.98 50.96 184.3 50.16 186.06 48.56C187.873 46.96 188.78 44.9067 188.78 42.4C188.78 40.8 188.38 39.4933 187.58 38.48C186.78 37.4133 185.74 36.56 184.46 35.92C183.233 35.2267 181.553 34.5067 179.42 33.76C179.367 33.7067 178.807 33.4933 177.74 33.12C173.74 31.5733 170.7 30.32 168.62 29.36C166.54 28.3467 164.647 26.8533 162.94 24.88C161.287 22.9067 160.46 20.4 160.46 17.36C160.46 14.7467 161.1 12.3733 162.38 10.24C163.713 8.05333 165.58 6.34666 167.98 5.12C170.433 3.84 173.287 3.2 176.54 3.2C181.553 3.2 185.473 4.72 188.3 7.76C191.127 10.7467 192.487 14.7467 192.38 19.76H186.86C186.753 16.1867 185.713 13.5467 183.74 11.84C181.767 10.08 179.26 9.2 176.22 9.2C173.553 9.2 171.287 9.84 169.42 11.12C167.607 12.4 166.7 14.3733 166.7 17.04C166.7 18.6933 167.073 20.0267 167.82 21.04C168.62 22.0533 169.607 22.88 170.78 23.52C172.007 24.16 173.82 24.9333 176.22 25.84L179.34 27.04C179.713 27.2 180.06 27.36 180.38 27.52C180.753 27.68 181.1 27.8133 181.42 27.92C184.247 29.04 186.567 30.1067 188.38 31.12C190.193 32.1333 191.74 33.5733 193.02 35.44C194.353 37.2533 195.02 39.5467 195.02 42.32C195.02 46.64 193.687 50.1333 191.02 52.8C188.353 55.4667 184.54 56.8 179.58 56.8C175.1 56.8 171.367 55.8667 168.38 54C165.447 52.08 163.287 49.84 161.9 47.28C160.513 44.6667 159.82 42.3733 159.82 40.4C159.82 40.0267 159.873 39.6267 159.98 39.2H165.5ZM207.143 7.76H198.983V-3.8147e-06H207.143V7.76ZM206.183 16V56H199.943V16H206.183ZM232.797 15.2C237.01 15.2 240.317 16.4533 242.717 18.96C245.17 21.4667 246.397 24.88 246.397 29.2V56H240.157V30.8C240.157 24.6133 237.304 21.52 231.597 21.52C228.664 21.52 226.05 22.5067 223.757 24.48C221.464 26.4533 219.944 29.04 219.197 32.24V56H212.957V16H219.197V27.44C220.104 23.7067 221.784 20.7467 224.237 18.56C226.69 16.32 229.544 15.2 232.797 15.2ZM253.433 -3.8147e-06H259.673V56H253.433V-3.8147e-06ZM287.513 56H279.513L259.833 33.68L277.193 16H286.153L268.313 33.76L287.513 56ZM292.664 53.244C291.399 53.244 290.22 52.9233 289.128 52.282C288.053 51.6233 287.195 50.748 286.554 49.656C285.913 48.5467 285.592 47.342 285.592 46.042C285.592 44.742 285.904 43.546 286.528 42.454C287.169 41.3447 288.027 40.4693 289.102 39.828C290.194 39.1867 291.381 38.866 292.664 38.866C293.929 38.866 295.099 39.1867 296.174 39.828C297.266 40.4693 298.124 41.3447 298.748 42.454C299.389 43.546 299.71 44.742 299.71 46.042C299.71 47.342 299.389 48.5467 298.748 49.656C298.107 50.748 297.249 51.6233 296.174 52.282C295.099 52.9233 293.929 53.244 292.664 53.244ZM292.664 51.398C293.669 51.398 294.562 51.164 295.342 50.696C296.139 50.2107 296.755 49.5607 297.188 48.746C297.621 47.914 297.838 47.0127 297.838 46.042C297.838 45.0713 297.621 44.1873 297.188 43.39C296.755 42.5753 296.139 41.934 295.342 41.466C294.562 40.9807 293.669 40.738 292.664 40.738C291.641 40.738 290.731 40.9807 289.934 41.466C289.137 41.934 288.521 42.5753 288.088 43.39C287.655 44.1873 287.438 45.0713 287.438 46.042C287.438 47.0127 287.655 47.914 288.088 48.746C288.539 49.5607 289.154 50.2107 289.934 50.696C290.731 51.164 291.641 51.398 292.664 51.398ZM290.194 42.532H292.898C294.718 42.532 295.628 43.2167 295.628 44.586C295.628 45.106 295.524 45.5307 295.316 45.86C295.125 46.172 294.787 46.3627 294.302 46.432C294.77 46.536 295.091 46.718 295.264 46.978C295.437 47.2207 295.524 47.55 295.524 47.966V49.318H293.834V47.966C293.834 47.706 293.739 47.5153 293.548 47.394C293.375 47.2727 293.08 47.212 292.664 47.212H291.884V49.318H290.194V42.532ZM292.846 45.678C293.193 45.678 293.461 45.6087 293.652 45.47C293.843 45.314 293.938 45.0973 293.938 44.82C293.973 44.352 293.609 44.118 292.846 44.118H291.884V45.678H292.846Z" fill="#F5F7F9"/>
</svg>
