<svg width="27" height="34" viewBox="0 0 27 34" fill="none" xmlns="http://www.w3.org/2000/svg">
<path d="M20.1938 9.945L19.5751 9.29333C19.322 9.03833 19.2095 8.67 19.2657 8.30167L19.3782 7.42333C19.4626 6.8 19.0407 6.205 18.422 6.09167L17.5501 5.95C17.1845 5.89333 16.9032 5.66667 16.7345 5.355L16.3126 4.56167C16.0313 3.995 15.3282 3.76833 14.7657 4.05167L13.9782 4.44833C13.6407 4.61833 13.2751 4.61833 12.9657 4.44833L12.1782 4.05167C11.6157 3.76833 10.9407 3.995 10.6313 4.56167L10.2376 5.38333C10.0688 5.695 9.75946 5.92167 9.42196 5.97833L8.55009 6.12C7.93134 6.23333 7.50946 6.8 7.59384 7.42333L7.70634 8.30167C7.76259 8.67 7.65008 9.01 7.39696 9.265L6.77821 9.91667C6.35633 10.37 6.32821 11.1067 6.77821 11.56L7.39696 12.2117C7.65008 12.4667 7.76259 12.835 7.70634 13.2033L7.59384 14.0817C7.50946 14.705 7.93134 15.3 8.55009 15.4133L9.42196 15.555C9.78759 15.6117 10.0688 15.8383 10.2376 16.15L10.6595 16.9433C10.9407 17.51 11.6438 17.7367 12.2063 17.4533L12.9938 17.0567C13.3313 16.8867 13.697 16.8867 14.0063 17.0567L14.7938 17.4533C15.3563 17.7367 16.0313 17.51 16.3407 16.9433L16.7626 16.15C16.9313 15.8383 17.2407 15.6117 17.5782 15.555L18.4501 15.4133C19.0688 15.3 19.4907 14.7333 19.4063 14.11L19.2938 13.2317C19.2376 12.8633 19.3501 12.5233 19.6032 12.2683L20.222 11.6167C20.6438 11.135 20.6438 10.3983 20.1938 9.945ZM14.6251 14.2517C14.2595 14.365 13.8657 14.4217 13.5001 14.4217C11.9251 14.4217 10.5188 13.4017 10.0407 11.8717C9.73134 10.9367 9.81571 9.945 10.2657 9.06667C10.7157 8.18833 11.4751 7.53667 12.4032 7.225C12.7688 7.11167 13.1626 7.055 13.5282 7.055C15.1032 7.055 16.5095 8.075 16.9876 9.605C17.6063 11.56 16.5376 13.6283 14.6251 14.2517Z" fill="#ADC9FF"/>
<path d="M16.4531 9.80327C15.9188 8.15994 14.175 7.28161 12.5438 7.79161C10.9125 8.32994 10.0406 10.0866 10.5469 11.7299C11.0813 13.3733 12.825 14.2516 14.4563 13.7416C16.0875 13.2033 16.9594 11.4466 16.4531 9.80327ZM14.2875 13.1749C14.0344 13.2599 13.7531 13.3166 13.5 13.3166C12.4031 13.3166 11.4469 12.6083 11.1094 11.5599C10.9125 10.9083 10.9406 10.2283 11.25 9.60494C11.5594 9.00994 12.0656 8.55661 12.7125 8.32994C12.9656 8.24494 13.2188 8.21661 13.5 8.21661C14.5969 8.21661 15.5531 8.92494 15.8906 9.97327C16.3406 11.3049 15.6094 12.7499 14.2875 13.1749Z" fill="#ADC9FF"/>
<path d="M16.875 17.1416L17.4375 24.3666L13.5 21.2499L9.5625 24.3666L10.125 17.1133L10.1531 17.1983C10.4625 17.7649 11.025 18.1333 11.6719 18.1333C11.925 18.1333 12.1781 18.0766 12.4313 17.9633L13.2188 17.5666C13.3031 17.5383 13.3875 17.5099 13.4719 17.5099C13.5563 17.5099 13.6406 17.5383 13.725 17.5666L14.5125 17.9633C14.7375 18.0766 15.0188 18.1333 15.2719 18.1333C15.9188 18.1333 16.4813 17.7933 16.7906 17.1983L16.875 17.1416Z" fill="#ADC9FF"/>
</svg>
