<svg width="658" height="110" viewBox="0 0 658 110" fill="none" xmlns="http://www.w3.org/2000/svg">
<path d="M28.418 108H71.566V106.66H56.96V7.768H82.018C84.832 7.768 84.966 7.768 86.038 10.314L98.232 40.196H99.036L95.016 0.129991H94.212L84.162 6.428H15.822L5.772 0.129991H4.968L0.948 40.196H1.752L13.946 10.314C15.018 7.768 15.152 7.768 17.966 7.768H43.024V106.66H28.418V108ZM126.488 22.106C131.044 22.106 134.662 18.622 134.662 13.932C134.662 9.37599 131.044 5.758 126.488 5.758C121.798 5.758 118.314 9.37599 118.314 13.932C118.314 18.622 121.798 22.106 126.488 22.106ZM132.786 39.928L110.274 48.236V48.772L120.726 54.4V106.66H110.274V108H143.238V106.66H132.786V39.928ZM187.758 106.66H177.306V65.522C177.306 51.318 182.934 45.02 192.582 45.02C200.89 45.02 206.92 50.514 206.92 65.522V106.66H196.468V108H229.432V106.66H218.98V65.522C218.98 51.318 224.608 45.02 234.256 45.02C242.564 45.02 248.594 50.514 248.594 65.522V106.66H238.142V108H271.106V106.66H260.654V64.45C260.654 45.824 251.542 39.526 240.152 39.526C229.834 39.526 221.258 45.02 218.444 57.214C216.3 44.216 208.26 39.526 198.478 39.526C188.026 39.526 180.254 45.02 177.306 55.74V39.928L154.794 48.236V48.772L165.246 54.4V106.66H154.794V108H187.758V106.66ZM317.922 109.742C335.074 109.742 346.866 100.496 350.082 80.396H349.144C344.588 98.486 332.662 101.702 323.416 101.702C308.542 101.702 297.688 88.436 297.688 69.006C297.688 66.594 297.822 64.45 298.09 62.306H347C342.042 43.68 328.106 39.526 317.654 39.526C299.832 39.526 284.02 53.462 284.02 74.902C284.02 96.61 298.626 109.742 317.922 109.742ZM317.386 40.732C327.838 40.732 331.456 49.978 331.456 54.534C331.456 59.894 329.848 60.832 320.87 60.832H298.358C300.502 47.968 308.14 40.732 317.386 40.732ZM401.217 109.742C419.039 109.742 436.995 98.084 436.995 79.592C436.995 63.512 423.729 55.07 408.185 49.442L398.671 45.958C386.477 41.536 380.581 34.3 380.581 23.446C380.581 11.654 389.961 4.81999 400.145 4.81999C414.617 4.81999 421.987 16.21 431.501 40.196H432.305L425.337 4.016H424.533L419.709 9.37599C415.555 5.892 407.649 3.61399 400.815 3.61399C387.013 3.61399 369.325 11.922 369.325 30.28C369.325 43.546 377.767 54.4 394.383 60.43L403.897 63.914C417.029 68.738 425.337 74.634 425.337 87.498C425.337 99.558 415.689 108.536 401.485 108.536C387.013 108.536 378.169 96.61 368.655 71.418H367.851L374.819 109.34H375.623L380.447 103.98C384.869 107.196 393.177 109.742 401.217 109.742ZM469.973 22.106C474.529 22.106 478.147 18.622 478.147 13.932C478.147 9.37599 474.529 5.758 469.973 5.758C465.283 5.758 461.799 9.37599 461.799 13.932C461.799 18.622 465.283 22.106 469.973 22.106ZM476.271 39.928L453.759 48.236V48.772L464.211 54.4V106.66H453.759V108H486.723V106.66H476.271V39.928ZM498.278 108H531.242V106.66H520.79V65.522C520.79 51.318 526.418 45.02 536.066 45.02C544.374 45.02 550.404 50.514 550.404 65.522V106.66H539.952V108H572.916V106.66H562.464V64.45C562.464 45.824 553.352 39.526 541.962 39.526C531.51 39.526 523.738 45.02 520.79 55.74V39.928L498.278 48.236V48.772L508.73 54.4V106.66H498.278V108ZM590.852 108H602.912V70.882L640.03 108H657.182L618.054 69.006H603.046L622.61 51.05H640.164L651.42 40.732H631.856L602.912 67.264V6.428H580.4V7.768H590.852V108Z" fill="#F5F7F9"/>
</svg>
