<svg width="325" height="93" viewBox="0 0 325 93" fill="none" xmlns="http://www.w3.org/2000/svg">
<path d="M1.8 17.176V33.592H2.088C4.464 33.592 4.392 28.912 6.048 24.736C7.848 20.272 9.36 18.472 16.992 18.472H20.088V65.632H12.096V67H35.28V65.632H27.288V18.472H30.384C38.016 18.472 39.528 20.272 41.328 24.736C42.984 28.912 42.912 33.592 45.288 33.592H45.576V17.176H1.8ZM66.9026 67V65.632H61.4306V36.04H49.4786V37.408H54.9506V65.632H49.4786V67H66.9026ZM62.2226 21.352C62.2226 18.976 60.3506 17.104 57.9746 17.104C55.5986 17.104 53.7266 18.976 53.7266 21.352C53.7266 23.728 55.5986 25.6 57.9746 25.6C60.3506 25.6 62.2226 23.728 62.2226 21.352ZM87.9896 65.632H82.8056V48.064C82.8056 44.968 86.1176 37.12 91.3736 37.12C95.9096 37.12 95.6936 42.232 95.6936 48.064V65.632H90.5096V67H107.358V65.632H102.174V48.064C102.174 44.968 105.486 37.12 110.742 37.12C115.278 37.12 115.062 42.232 115.062 48.064V65.632H109.878V67H127.014V65.632H121.542V46.912C121.542 40.792 120.03 35.248 112.47 35.248C107.502 35.248 103.758 38.776 101.886 43.744H101.814C101.238 39.064 99.3656 35.248 93.1016 35.248C88.1336 35.248 84.3896 38.776 82.5176 43.744H82.4456L82.3016 36.04H70.8536V37.408H76.3256V65.632H70.8536V67H87.9896V65.632ZM159.359 50.152C160.007 40.072 152.591 35.104 145.967 35.104C138.119 35.104 131.063 42.592 131.063 51.736C131.063 61.096 137.687 67.864 146.687 67.864C152.519 67.864 157.703 64.336 158.855 57.928L157.271 57.64C156.191 63.544 151.583 66.352 147.407 66.352C140.855 66.352 138.479 60.52 138.479 51.736V50.296V50.152H159.359ZM145.967 36.256C150.287 36.256 152.879 40.144 152.447 48.784H138.479C138.767 41.584 141.287 36.256 145.967 36.256ZM197.054 33.376V16.96H196.91C194.822 16.96 194.678 20.416 193.094 20.416C191.798 20.416 189.062 16.384 182.078 16.384C174.734 16.384 168.902 21.856 168.902 28.768C168.902 35.608 172.934 41.152 180.926 44.104L185.462 45.76C192.95 48.496 196.406 51.952 196.406 56.92C196.406 63.688 190.574 66.352 185.75 66.352C178.118 66.352 174.014 62.68 172.214 56.776C170.918 52.456 169.766 50.296 168.11 50.296H167.822V67.504H168.11C170.27 67.504 169.91 63.76 172.07 63.76C174.158 63.76 177.398 67.864 185.246 67.864C194.39 67.864 200.654 61.6 200.654 53.104C200.654 44.464 195.542 40.504 187.118 37.48L182.942 35.968C176.966 33.808 172.934 31.144 172.934 25.888C172.934 20.704 177.254 17.896 181.934 17.896C189.206 17.896 191.438 22.72 192.95 26.68C194.246 30.28 194.75 33.376 196.694 33.376H197.054ZM224.262 67V65.632H218.79V36.04H206.838V37.408H212.31V65.632H206.838V67H224.262ZM219.582 21.352C219.582 18.976 217.71 17.104 215.334 17.104C212.958 17.104 211.086 18.976 211.086 21.352C211.086 23.728 212.958 25.6 215.334 25.6C217.71 25.6 219.582 23.728 219.582 21.352ZM228.213 67H245.349V65.632H240.165V48.064C240.165 44.968 243.477 37.12 248.733 37.12C253.269 37.12 253.053 42.232 253.053 48.064V65.632H247.869V67H265.005V65.632H259.533V46.912C259.533 40.792 258.021 35.248 250.461 35.248C245.493 35.248 241.749 38.776 239.877 43.744H239.805L239.661 36.04H228.213V37.408H233.685V65.632H228.213V67ZM283.632 65.632H279.312V50.008H284.136L293.496 65.632H288.6V67H305.088V65.632H300.84L293.424 53.824C291.264 50.368 289.752 49.216 286.872 49V48.928C288.6 48.496 289.896 47.416 291.48 45.04L296.664 37.408H301.632V36.04H288.672V37.408H294.648L289.896 44.536C287.592 47.92 285.144 48.64 281.76 48.64H279.312V15.808H267.504V17.176H272.832V65.632H267.36V67H283.632V65.632Z" fill="#F5F7F9"/>
<path d="M308.172 55.375C308.172 53.3854 308.891 51.6875 310.328 50.2812C311.766 48.8646 313.5 48.1562 315.531 48.1562C317.583 48.1562 319.318 48.8542 320.734 50.25C321.391 50.8958 321.911 51.6667 322.297 52.5625C322.693 53.4479 322.891 54.4688 322.891 55.625C322.891 56.7812 322.557 57.9167 321.891 59.0312C321.234 60.1354 320.339 61.0052 319.203 61.6406C318.078 62.276 316.854 62.5938 315.531 62.5938C314.208 62.5938 312.979 62.2708 311.844 61.625C310.719 60.9792 309.823 60.1042 309.156 59C308.5 57.8854 308.172 56.6771 308.172 55.375ZM311.078 51.0156C309.849 52.224 309.234 53.6771 309.234 55.375C309.234 57.0729 309.854 58.526 311.094 59.7344C312.333 60.9427 313.812 61.5469 315.531 61.5469C317.26 61.5469 318.74 60.9479 319.969 59.75C321.208 58.5417 321.828 57.0833 321.828 55.375C321.828 53.6562 321.214 52.1979 319.984 51C318.755 49.8021 317.271 49.2031 315.531 49.2031C313.792 49.2031 312.307 49.8073 311.078 51.0156ZM313.016 59.1875V51.5H316.328C317.005 51.5 317.531 51.7344 317.906 52.2031C318.281 52.6615 318.469 53.1458 318.469 53.6562C318.469 54.1562 318.349 54.625 318.109 55.0625C317.88 55.4896 317.51 55.7552 317 55.8594L318.453 59.1875H317.266L315.859 56.0312H314.125V59.1875H313.016ZM314.125 55.0469H316.031C316.927 55.0469 317.375 54.5833 317.375 53.6562C317.375 53.1979 317.214 52.8906 316.891 52.7344C316.568 52.5677 316.109 52.4844 315.516 52.4844H314.125V55.0469Z" fill="#F5F7F9"/>
</svg>
