<svg width="311" height="81" viewBox="0 0 311 81" fill="none" xmlns="http://www.w3.org/2000/svg">
<path d="M33.36 63H20.4V62.84C21.7333 60.76 22.5867 58.9733 22.96 57.48C23.3867 55.9333 23.6 53.7733 23.6 51V5.88L12.96 6.2C12.64 6.2 12.2933 6.30666 11.92 6.52C11.5467 6.68 11.1467 6.94667 10.72 7.32C10.2933 7.69333 9.89333 8.09333 9.52 8.52C9.14667 8.89333 8.69333 9.42666 8.16 10.12C7.68 10.76 7.25333 11.3467 6.88 11.88C6.50667 12.36 6.05333 13.0267 5.52 13.88C4.98667 14.68 4.56 15.32 4.24 15.8C3.97333 16.28 3.54667 16.9467 2.96 17.8C2.42667 18.6533 2.05333 19.2667 1.84 19.64L1.2 19.4L4.24 4.44H49.44L52.56 19.4L51.92 19.64C51.44 18.9467 50.6933 17.8267 49.68 16.28C48.72 14.7333 47.8933 13.5067 47.2 12.6C46.56 11.64 45.8133 10.6 44.96 9.48C44.1067 8.36 43.3333 7.53333 42.64 7C41.9467 6.46666 41.3067 6.2 40.72 6.2L30.16 5.88V51C30.16 53.7733 30.3467 55.9333 30.72 57.48C31.1467 58.9733 32.0267 60.76 33.36 62.84V63ZM66.2319 10.28C66.2319 11.4 65.8319 12.36 65.0319 13.16C64.2852 13.9067 63.3785 14.28 62.3119 14.28C61.2452 14.28 60.3119 13.9067 59.5119 13.16C58.7119 12.36 58.3119 11.4 58.3119 10.28C58.3119 9.21333 58.7119 8.28 59.5119 7.48C60.3119 6.68 61.2452 6.28 62.3119 6.28C63.3785 6.28 64.2852 6.68 65.0319 7.48C65.8319 8.28 66.2319 9.21333 66.2319 10.28ZM57.9119 62.84C59.0852 59.64 59.6719 55.5867 59.6719 50.68V35.8C59.6719 32.5467 58.4985 29.9067 56.1519 27.88V27.56L65.5119 23.32V50.6C65.5119 56.2 66.0985 60.28 67.2719 62.84V63H57.9119V62.84ZM84.7738 63H75.3338V62.84C76.5604 60.0667 77.1738 56.0667 77.1738 50.84V35.8C77.1738 32.44 75.9738 29.72 73.5738 27.64V27.48L82.6938 23.24V30.76L83.0138 30.84C86.1604 26.0933 90.3471 23.72 95.5738 23.72C100.747 23.72 103.787 26.0933 104.694 30.84L104.934 30.92C108.294 26.12 112.507 23.72 117.574 23.72C123.814 23.72 126.934 27.32 126.934 34.52V50.76C126.934 53.96 127.04 56.3867 127.254 58.04C127.467 59.6933 127.947 61.2933 128.694 62.84V63H119.334V62.84C120.507 60.1733 121.094 56.1733 121.094 50.84V35.8C121.094 33.24 120.614 31.24 119.654 29.8C118.694 28.36 116.987 27.64 114.534 27.64C110.907 27.64 107.707 29.2933 104.934 32.6V50.76C104.934 53.8533 105.04 56.2533 105.254 57.96C105.467 59.6133 105.974 61.24 106.774 62.84V63H97.3338V62.84C98.5071 60.1733 99.0938 56.1733 99.0938 50.84V35.8C99.0938 33.24 98.6138 31.24 97.6538 29.8C96.6938 28.36 94.9871 27.64 92.5338 27.64C88.7471 27.64 85.5738 29.2667 83.0138 32.52V50.76C83.0138 56.3067 83.6004 60.3333 84.7738 62.84V63ZM168.1 53.32C167.087 56.5733 165.22 59.2133 162.5 61.24C159.833 63.2133 156.58 64.2 152.74 64.2C147.46 64.2 143.193 62.3867 139.94 58.76C136.74 55.1333 135.14 50.4133 135.14 44.6C135.14 38.4667 136.953 33.4533 140.58 29.56C144.207 25.6667 148.447 23.72 153.3 23.72C157.78 23.72 161.407 25.32 164.18 28.52C167.007 31.72 168.26 35.2667 167.94 39.16H141.3C141.247 39.4267 141.22 39.88 141.22 40.52V41.88C141.22 47.32 142.447 51.56 144.9 54.6C147.407 57.5867 150.9 59.08 155.38 59.08C160.873 59.08 164.98 57.08 167.7 53.08L168.1 53.32ZM152.98 25.16C149.833 25.16 147.247 26.3067 145.22 28.6C143.247 30.8933 141.993 33.9867 141.46 37.88L161.46 37.48V36.84C161.46 29.0533 158.633 25.16 152.98 25.16ZM207.347 18.28L206.707 18.52C202.974 9.4 197.694 4.84 190.867 4.84C187.347 4.84 184.654 5.77333 182.787 7.64C180.974 9.50667 180.067 11.88 180.067 14.76C180.067 16.0933 180.227 17.2933 180.547 18.36C180.867 19.4267 181.454 20.44 182.307 21.4C183.16 22.36 183.88 23.1333 184.467 23.72C185.107 24.3067 186.2 25 187.747 25.8C189.347 26.6 190.467 27.16 191.107 27.48C191.747 27.8 193.027 28.3867 194.947 29.24C196.92 30.1467 198.52 30.92 199.747 31.56C201.027 32.2 202.467 33.08 204.067 34.2C205.72 35.32 207 36.4667 207.907 37.64C208.867 38.8133 209.667 40.28 210.307 42.04C211 43.8 211.347 45.72 211.347 47.8C211.347 53.3467 209.4 57.48 205.507 60.2C201.667 62.8667 196.76 64.2 190.787 64.2C185.507 64.2 180.227 63.1867 174.947 61.16L173.347 48.2L173.987 47.96C176.387 53.08 179.054 56.8133 181.987 59.16C184.974 61.4533 188.547 62.6 192.707 62.6C196.814 62.6 199.934 61.5333 202.067 59.4C204.254 57.2133 205.347 54.3333 205.347 50.76C205.347 48.68 205 46.84 204.307 45.24C203.614 43.5867 202.52 42.1467 201.027 40.92C199.534 39.6933 198.094 38.7067 196.707 37.96C195.374 37.16 193.614 36.28 191.427 35.32C186.147 32.8133 182.627 30.8667 180.867 29.48C176.92 26.44 174.947 22.52 174.947 17.72C174.947 12.92 176.6 9.32 179.907 6.92C183.214 4.46666 187.507 3.24 192.787 3.24C197.267 3.24 201.587 4.04 205.747 5.64L207.347 18.28ZM226.466 10.28C226.466 11.4 226.066 12.36 225.266 13.16C224.52 13.9067 223.613 14.28 222.546 14.28C221.48 14.28 220.546 13.9067 219.746 13.16C218.946 12.36 218.546 11.4 218.546 10.28C218.546 9.21333 218.946 8.28 219.746 7.48C220.546 6.68 221.48 6.28 222.546 6.28C223.613 6.28 224.52 6.68 225.266 7.48C226.066 8.28 226.466 9.21333 226.466 10.28ZM218.146 62.84C219.32 59.64 219.906 55.5867 219.906 50.68V35.8C219.906 32.5467 218.733 29.9067 216.386 27.88V27.56L225.746 23.32V50.6C225.746 56.2 226.333 60.28 227.506 62.84V63H218.146V62.84ZM244.928 63H235.568V62.84C236.741 60.1733 237.328 56.12 237.328 50.68V35.72C237.328 32.4133 236.155 29.7467 233.808 27.72V27.56L242.848 23.32V30.76L243.168 30.84C247.168 26.0933 251.728 23.72 256.848 23.72C260.475 23.72 263.248 24.76 265.168 26.84C267.141 28.8667 268.128 31.72 268.128 35.4V50.6C268.128 53.8533 268.208 56.3067 268.368 57.96C268.581 59.6133 269.088 61.24 269.888 62.84V63H260.528V62.84C261.701 60.12 262.288 56.0667 262.288 50.68V36.68C262.288 34.0133 261.621 31.8533 260.288 30.2C259.008 28.4933 256.928 27.64 254.048 27.64C249.888 27.64 246.261 29.2133 243.168 32.36V50.6C243.168 56.2 243.755 60.28 244.928 62.84V63ZM277.83 62.84C279.003 60.5467 279.59 57.1867 279.59 52.76V12.04C279.59 9.05333 278.417 6.6 276.07 4.68V4.52L285.43 0.679996V52.68C285.43 57.4267 286.043 60.8133 287.27 62.84V63H277.83V62.84ZM301.19 63L286.79 43.08L297.19 31.56C299.643 28.84 299.857 26.68 297.83 25.08V24.92H307.59V25.08C305.617 25.9867 303.99 26.9733 302.71 28.04C301.483 29.0533 300.07 30.4933 298.47 32.36L291.67 40.04L302.95 55.64C305.403 59.16 307.83 61.56 310.23 62.84V63H301.19Z" fill="#F5F7F9"/>
</svg>
