<svg width="290" height="86" viewBox="0 0 290 86" fill="none" xmlns="http://www.w3.org/2000/svg">
<path d="M280 46C280 44.6219 280.488 43.4459 281.465 42.4719C282.442 41.4906 283.62 41 285 41C286.394 41 287.573 41.4834 288.535 42.4502C288.981 42.8975 289.335 43.4315 289.597 44.0519C289.866 44.6652 290 45.3723 290 46.1732C290 46.974 289.774 47.7605 289.321 48.5325C288.875 49.2973 288.266 49.8997 287.495 50.3398C286.73 50.7799 285.899 51 285 51C284.101 51 283.266 50.7763 282.495 50.329C281.73 49.8817 281.122 49.2756 280.669 48.5108C280.223 47.7388 280 46.9019 280 46ZM281.975 42.9805C281.139 43.8175 280.722 44.824 280.722 46C280.722 47.176 281.143 48.1825 281.985 49.0195C282.827 49.8564 283.832 50.2749 285 50.2749C286.175 50.2749 287.18 49.86 288.015 49.0303C288.857 48.1934 289.278 47.1833 289.278 46C289.278 44.8095 288.861 43.7994 288.025 42.9697C287.19 42.14 286.182 41.7251 285 41.7251C283.818 41.7251 282.81 42.1436 281.975 42.9805ZM283.291 48.6407V43.316H285.541C286.001 43.316 286.359 43.4784 286.614 43.803C286.868 44.1205 286.996 44.456 286.996 44.8095C286.996 45.1558 286.914 45.4805 286.752 45.7835C286.596 46.0794 286.345 46.2633 285.998 46.3355L286.985 48.6407H286.178L285.223 46.4545H284.045V48.6407H283.291ZM284.045 45.7727H285.34C285.948 45.7727 286.253 45.4517 286.253 44.8095C286.253 44.4921 286.143 44.2792 285.924 44.171C285.704 44.0556 285.393 43.9978 284.989 43.9978H284.045V45.7727Z" fill="#F5F7F9"/>
<path d="M30.024 62.856C27.648 59.184 27.144 57.168 27.144 52.2V11.592L36.648 11.88C39.312 11.952 43.56 19.224 46.728 23.976L47.304 23.76L44.496 10.296H3.816L1.08 23.76L1.656 23.976C4.752 19.224 9 11.952 11.664 11.88L21.24 11.592V52.2C21.24 57.096 20.736 59.184 18.36 62.856V63H30.024V62.856ZM59.6087 15.552C59.6087 13.608 58.0247 11.952 56.0807 11.952C54.1367 11.952 52.4807 13.608 52.4807 15.552C52.4807 17.568 54.1367 19.152 56.0807 19.152C58.0247 19.152 59.6087 17.568 59.6087 15.552ZM52.1207 63H60.5447V62.856C59.1047 59.688 58.9607 56.808 58.9607 51.84V27.288L50.5367 31.104V31.392C52.1927 32.832 53.7047 34.992 53.7047 38.52V51.912C53.7047 56.88 53.2727 59.688 52.1207 62.856V63ZM76.2964 62.856C74.8564 59.76 74.7124 56.88 74.7124 51.984V35.568C76.8004 32.904 79.7524 31.176 83.2804 31.176C88.1764 31.176 89.1844 34.56 89.1844 38.52V52.056C89.1844 56.736 88.9684 59.76 87.6004 62.856V63H96.0964V62.856C94.5844 59.76 94.4404 57.024 94.4404 51.984V35.64C96.6004 32.976 99.5524 31.176 103.08 31.176C107.904 31.176 108.984 34.56 108.984 38.52V52.056C108.984 56.736 108.696 59.76 107.4 62.856V63H115.824V62.856C114.384 59.76 114.24 57.024 114.24 51.984V37.368C114.24 31.392 111.936 27.648 105.816 27.648C101.064 27.648 97.2484 30.168 94.4404 34.128L94.2244 34.056C93.4324 30.096 90.9844 27.648 86.0164 27.648C81.2644 27.648 77.3764 30.096 74.7124 34.056L74.4244 33.984V27.216L66.2164 31.032V31.176C67.9444 32.688 69.4564 34.776 69.4564 38.52V52.056C69.4564 57.024 69.1684 59.76 67.8004 62.856V63H76.2964V62.856ZM137.682 28.944C142.65 28.944 145.314 32.256 145.314 39.456V40.032L127.314 40.392C128.25 33.48 131.922 28.944 137.682 28.944ZM151.29 54.288L150.93 54.072C148.482 57.744 144.234 59.472 139.842 59.472C131.706 59.472 127.098 53.64 127.098 43.992C127.098 43.128 127.098 42.336 127.17 41.544H151.146C151.65 34.848 146.322 27.648 137.97 27.648C129.618 27.648 121.626 34.992 121.626 46.44C121.626 56.736 127.962 64.08 137.466 64.08C144.522 64.08 149.49 59.904 151.29 54.288ZM185.172 11.376C182.004 10.152 177.828 9.216 173.508 9.216C164.508 9.216 157.452 13.248 157.452 22.248C157.452 31.464 164.94 34.704 172.284 38.088C178.836 41.04 184.812 44.136 184.812 51.984C184.812 58.104 181.068 62.64 173.436 62.64C165.948 62.64 160.908 58.608 156.588 49.464L156.012 49.68L157.452 61.344C161.772 63 166.812 64.08 171.708 64.08C181.572 64.08 190.212 59.904 190.212 49.32C190.212 39.528 182.724 35.928 175.452 32.616C168.612 29.448 162.06 26.856 162.06 19.584C162.06 14.688 165.156 10.656 171.78 10.656C177.18 10.656 182.148 13.464 186.036 22.968L186.612 22.752L185.172 11.376ZM203.82 15.552C203.82 13.608 202.236 11.952 200.292 11.952C198.348 11.952 196.692 13.608 196.692 15.552C196.692 17.568 198.348 19.152 200.292 19.152C202.236 19.152 203.82 17.568 203.82 15.552ZM196.332 63H204.756V62.856C203.316 59.688 203.172 56.808 203.172 51.84V27.288L194.748 31.104V31.392C196.404 32.832 197.916 34.992 197.916 38.52V51.912C197.916 56.88 197.484 59.688 196.332 62.856V63ZM220.435 62.856C218.995 59.688 218.851 56.808 218.851 51.84V35.424C221.659 32.544 225.259 31.176 228.643 31.176C234.115 31.176 236.059 34.848 236.059 39.312V51.912C236.059 56.664 235.771 59.688 234.475 62.856V63H242.899V62.856C241.387 59.688 241.315 57.024 241.315 51.84V38.16C241.315 31.68 237.787 27.648 231.163 27.648C226.411 27.648 222.235 30.024 218.851 34.056L218.563 33.984V27.288L210.427 31.104V31.248C212.083 32.688 213.595 34.776 213.595 38.448V51.912C213.595 56.952 213.379 59.688 212.011 62.856V63H220.435V62.856ZM250.047 63H258.543V62.856C257.247 60.624 256.887 58.176 256.887 53.712V6.912L248.463 10.368V10.512C250.119 11.808 251.631 13.752 251.631 17.136V53.784C251.631 58.248 251.199 60.624 250.047 62.856V63ZM279.207 63V62.856C276.687 61.488 275.103 59.688 272.655 56.376L262.503 42.336L268.623 35.424C271.215 32.472 272.943 30.6 276.831 28.872V28.728H268.047V28.872C269.919 30.384 269.271 32.688 267.471 34.704L258.111 45.072L271.071 63H279.207Z" fill="#F5F7F9"/>
</svg>
