<svg width="173" height="69" viewBox="0 0 173 69" fill="none" xmlns="http://www.w3.org/2000/svg">
<rect y="12" width="113" height="34" fill="#D4D6DC"/>
<path d="M11.072 36H13.256V21.096H18.632V19.2H5.696V21.096H11.072V36ZM25.2307 36.288C28.8307 36.288 31.2067 33.768 31.2067 30C31.2067 26.376 28.9027 23.712 25.2307 23.712C21.5107 23.712 19.2307 26.352 19.2307 30C19.2307 33.912 21.4867 36.288 25.2307 36.288ZM25.2307 34.584C22.4467 34.584 21.5587 32.832 21.5587 30C21.5587 27.168 22.4707 25.416 25.2307 25.416C27.9427 25.416 28.8787 27.168 28.8787 30C28.8787 32.832 27.9427 34.584 25.2307 34.584ZM40.2476 23.712C38.6396 23.712 37.3436 24.384 36.4556 25.752V24H34.2956V40.8H36.4556V34.44C37.3676 35.712 38.6396 36.288 40.3196 36.288C43.5596 36.288 45.7676 33.792 45.7676 30C45.7676 26.088 43.4396 23.712 40.2476 23.712ZM39.8156 34.56C36.8876 34.56 36.3836 32.208 36.3836 29.976C36.3836 26.952 37.5596 25.416 39.8636 25.416C42.6716 25.416 43.3916 27.192 43.3916 30C43.3916 32.88 42.5036 34.56 39.8156 34.56ZM64.7866 23.712C63.1786 23.712 61.8826 24.384 60.9946 25.752V24H58.8346V40.8H60.9946V34.44C61.9066 35.712 63.1786 36.288 64.8586 36.288C68.0986 36.288 70.3066 33.792 70.3066 30C70.3066 26.088 67.9786 23.712 64.7866 23.712ZM64.3546 34.56C61.4266 34.56 60.9226 32.208 60.9226 29.976C60.9226 26.952 62.0986 25.416 64.4026 25.416C67.2106 25.416 67.9306 27.192 67.9306 30C67.9306 32.88 67.0426 34.56 64.3546 34.56ZM77.8087 19.008H75.4327V21.792H77.8087V19.008ZM77.7847 34.176V24H73.5847V25.824H75.6247V34.176H73.2487V36H79.9927V34.176H77.7847ZM88.7743 36.288C91.5583 36.288 93.6463 34.752 94.0782 32.328L92.0383 32.112C91.5823 33.84 90.6223 34.56 88.7743 34.56C85.8703 34.56 85.1983 32.712 85.1983 30C85.1983 27.36 85.8463 25.44 88.7743 25.44C90.9343 25.44 91.6543 26.808 92.0143 28.2L94.0303 27.816C93.5503 25.536 91.8223 23.712 88.7743 23.712C85.1023 23.712 82.8223 26.304 82.8223 30C82.8223 33.936 85.1023 36.288 88.7743 36.288ZM105.338 36H107.858L102.914 28.416L107.642 24H104.714L99.6984 28.968V19.2H97.5384V36H99.6984V31.416L101.378 29.832L105.338 36Z" fill="black"/>
<path d="M159.135 20.1822L157.875 18.8597C157.359 18.3422 157.13 17.5947 157.245 16.8472L157.474 15.0647C157.646 13.7997 156.786 12.5922 155.526 12.3622L153.75 12.0747C153.005 11.9597 152.432 11.4997 152.089 10.8672L151.229 9.25715C150.656 8.10715 149.224 7.64715 148.078 8.22215L146.474 9.02715C145.786 9.37215 145.042 9.37215 144.411 9.02715L142.807 8.22215C141.661 7.64715 140.286 8.10715 139.656 9.25715L138.854 10.9247C138.51 11.5572 137.88 12.0172 137.193 12.1322L135.417 12.4197C134.156 12.6497 133.297 13.7997 133.469 15.0647L133.698 16.8472C133.813 17.5947 133.583 18.2847 133.068 18.8022L131.807 20.1247C130.948 21.0447 130.891 22.5397 131.807 23.4597L133.068 24.7822C133.583 25.2997 133.813 26.0472 133.698 26.7947L133.469 28.5772C133.297 29.8422 134.156 31.0497 135.417 31.2797L137.193 31.5672C137.938 31.6822 138.51 32.1422 138.854 32.7747L139.714 34.3847C140.286 35.5347 141.719 35.9947 142.865 35.4197L144.469 34.6147C145.156 34.2697 145.901 34.2697 146.531 34.6147L148.135 35.4197C149.281 35.9947 150.656 35.5347 151.286 34.3847L152.146 32.7747C152.49 32.1422 153.12 31.6822 153.807 31.5672L155.583 31.2797C156.844 31.0497 157.703 29.8997 157.531 28.6347L157.302 26.8522C157.188 26.1047 157.417 25.4147 157.932 24.8972L159.193 23.5747C160.052 22.5972 160.052 21.1022 159.135 20.1822ZM147.792 28.9222C147.047 29.1522 146.245 29.2672 145.5 29.2672C142.292 29.2672 139.427 27.1972 138.453 24.0922C137.823 22.1947 137.995 20.1822 138.911 18.3997C139.828 16.6172 141.375 15.2947 143.266 14.6622C144.01 14.4322 144.813 14.3172 145.557 14.3172C148.766 14.3172 151.63 16.3872 152.604 19.4922C153.865 23.4597 151.688 27.6572 147.792 28.9222Z" fill="#ADC9FF"/>
<path d="M151.516 19.8946C150.427 16.5596 146.875 14.7771 143.552 15.8121C140.229 16.9046 138.453 20.4696 139.484 23.8046C140.573 27.1396 144.125 28.9221 147.448 27.8871C150.771 26.7946 152.547 23.2296 151.516 19.8946ZM147.104 26.7371C146.589 26.9096 146.016 27.0246 145.5 27.0246C143.266 27.0246 141.318 25.5871 140.63 23.4596C140.229 22.1371 140.286 20.7571 140.917 19.4921C141.547 18.2846 142.578 17.3646 143.896 16.9046C144.411 16.7321 144.927 16.6746 145.5 16.6746C147.734 16.6746 149.682 18.1121 150.37 20.2396C151.286 22.9421 149.797 25.8746 147.104 26.7371Z" fill="#ADC9FF"/>
<path d="M152.375 34.788L153.521 49.4505L145.5 43.1255L137.479 49.4505L138.625 34.7305L138.682 34.903C139.312 36.053 140.458 36.8005 141.776 36.8005C142.292 36.8005 142.807 36.6855 143.323 36.4555L144.927 35.6505C145.099 35.593 145.271 35.5355 145.443 35.5355C145.615 35.5355 145.786 35.593 145.958 35.6505L147.562 36.4555C148.021 36.6855 148.594 36.8005 149.109 36.8005C150.427 36.8005 151.573 36.1105 152.203 34.903L152.375 34.788Z" fill="#ADC9FF"/>
</svg>
