<svg width="98" height="96" viewBox="0 0 98 96" fill="none" xmlns="http://www.w3.org/2000/svg">
<g clip-path="url(#clip0)">
<path d="M49 47.6944C54.4335 47.6944 58.8383 43.3076 58.8383 37.8963C58.8383 32.4849 54.4335 28.0981 49 28.0981C43.5665 28.0981 39.1617 32.4849 39.1617 37.8963C39.1617 43.3076 43.5665 47.6944 49 47.6944Z" fill="#F5F7F9"/>
<path d="M56.4074 52.4409H41.5926C36.2141 52.4409 31.8691 56.7681 31.8691 62.1247V69.5018H66.1309V62.1247C66.1309 56.7872 61.7668 52.4409 56.4074 52.4409Z" fill="#F5F7F9"/>
<path d="M49 96.4563C36.2141 96.4563 24.1938 91.5 15.1594 82.5025C6.125 73.505 1.14844 61.5338 1.14844 48.8C1.14844 36.0663 6.125 24.095 15.1594 15.0975C24.1938 6.10005 36.2141 1.1438 49 1.1438C61.7859 1.1438 73.8062 6.10005 82.8406 15.0975C91.875 24.095 96.8516 36.0663 96.8516 48.8C96.8516 61.5338 91.875 73.505 82.8406 82.5025C73.8062 91.5 61.7859 96.4563 49 96.4563ZM49 4.1938C24.3086 4.1938 4.21094 24.2094 4.21094 48.8C4.21094 73.3907 24.3086 93.4063 49 93.4063C73.6914 93.4063 93.7891 73.3907 93.7891 48.8C93.7891 24.2094 73.6914 4.1938 49 4.1938Z" fill="#F5F7F9"/>
</g>
<defs>
<clipPath id="clip0">
<rect width="98" height="96" fill="white"/>
</clipPath>
</defs>
</svg>
