<svg width="100" height="53" viewBox="0 0 100 53" fill="none" xmlns="http://www.w3.org/2000/svg">
<path d="M49.9998 4.50098C34.3868 4.50098 21.2538 13.574 17.3628 24C21.2538 34.426 34.3868 43.499 49.9998 43.499C65.6128 43.499 78.7458 34.426 82.6378 24C78.7458 13.574 65.6128 4.50098 49.9998 4.50098ZM49.9998 38.005C42.2658 38.005 35.9948 31.734 35.9948 24C35.9948 16.265 42.2658 9.99498 49.9998 9.99498C57.7358 9.99498 64.0058 16.265 64.0058 24C64.0058 31.734 57.7358 38.005 49.9998 38.005ZM49.9998 15.075C45.0718 15.075 41.0748 19.071 41.0748 24C41.0748 28.93 45.0718 32.926 49.9998 32.926C54.9278 32.926 58.9258 28.93 58.9258 24C58.9258 19.071 54.9278 15.075 49.9998 15.075Z" fill="#4987FF"/>
</svg>
